<svg width="3288" height="1379" xmlns="http://www.w3.org/2000/svg" xmlns:xlink="http://www.w3.org/1999/xlink" overflow="hidden"><defs><clipPath id="clip0"><rect x="238" y="316" width="3288" height="1379"/></clipPath></defs><g clip-path="url(#clip0)" transform="translate(-238 -316)"><path d="M527 678C527 633.265 563.489 597 608.5 597 653.511 597 690 633.265 690 678 690 722.735 653.511 759 608.5 759 563.489 759 527 722.735 527 678Z" fill="#4472C4" fill-rule="evenodd"/><path d="M835 678C835 633.265 871.265 597 916 597 960.735 597 997 633.265 997 678 997 722.735 960.735 759 916 759 871.265 759 835 722.735 835 678Z" fill="#4472C4" fill-rule="evenodd"/><path d="M1143 678C1143 633.265 1179.26 597 1224 597 1268.73 597 1305 633.265 1305 678 1305 722.735 1268.73 759 1224 759 1179.26 759 1143 722.735 1143 678Z" fill="#4472C4" fill-rule="evenodd"/><path d="M835 919C835 874.265 871.265 838 916 838 960.735 838 997 874.265 997 919 997 963.735 960.735 1000 916 1000 871.265 1000 835 963.735 835 919Z" fill="#4472C4" fill-rule="evenodd"/><path d="M301 919C301 874.265 337.265 838 382 838 426.735 838 463 874.265 463 919 463 963.735 426.735 1000 382 1000 337.265 1000 301 963.735 301 919Z" fill="#4472C4" fill-rule="evenodd"/><path d="M1356 919C1356 874.265 1392.27 838 1437 838 1481.74 838 1518 874.265 1518 919 1518 963.735 1481.74 1000 1437 1000 1392.27 1000 1356 963.735 1356 919Z" fill="#4472C4" fill-rule="evenodd"/><path d="M835 474 916 335 997 474Z" fill="#C55A11" fill-rule="evenodd"/><path d="M0 140 81 0 162 140Z" fill="#FFD966" fill-rule="evenodd" transform="matrix(1 0 0 -1 301 1242)"/><path d="M0 140 81 0 162 140Z" fill="#FFD966" fill-rule="evenodd" transform="matrix(1 0 0 -1 838 1242)"/><path d="M0 140 81 0 162 140Z" fill="#FFD966" fill-rule="evenodd" transform="matrix(1 0 0 -1 1374 1242)"/><path d="M690.5 678.5 835.89 678.5" stroke="#000000" stroke-width="6.875" stroke-miterlimit="8" fill="none" fill-rule="evenodd"/><path d="M997.5 678.5 1142.89 678.5" stroke="#000000" stroke-width="6.875" stroke-miterlimit="8" fill="none" fill-rule="evenodd"/><path d="M463.5 919.5 835.426 919.5" stroke="#000000" stroke-width="6.875" stroke-miterlimit="8" fill="none" fill-rule="evenodd"/><path d="M997.5 919.5 1355.9 919.5" stroke="#000000" stroke-width="6.875" stroke-miterlimit="8" fill="none" fill-rule="evenodd"/><path d="M0 0 226.537 203.615" stroke="#000000" stroke-width="6.875" stroke-miterlimit="8" fill="none" fill-rule="evenodd" transform="matrix(1 0 0 -1 690.5 678.115)"/><path d="M916.5 474.5 916.5 596.967" stroke="#000000" stroke-width="6.875" stroke-miterlimit="8" fill="none" fill-rule="evenodd"/><path d="M1143.04 678.115 916.5 474.5" stroke="#000000" stroke-width="6.875" stroke-miterlimit="8" fill="none" fill-rule="evenodd"/><path d="M0 0 226.537 241.189" stroke="#000000" stroke-width="6.875" stroke-miterlimit="8" fill="none" fill-rule="evenodd" transform="matrix(-1 0 0 1 690.037 678.5)"/><path d="M916.5 759.5 916.5 838.394" stroke="#000000" stroke-width="6.875" stroke-miterlimit="8" fill="none" fill-rule="evenodd"/><path d="M1143.5 678.5 1356.51 919.689" stroke="#000000" stroke-width="6.875" stroke-miterlimit="8" fill="none" fill-rule="evenodd"/><path d="M382.5 1000.5 382.5 1101.78" stroke="#000000" stroke-width="6.875" stroke-miterlimit="8" fill="none" fill-rule="evenodd"/><path d="M922.5 1000.5 922.5 1101.78" stroke="#000000" stroke-width="6.875" stroke-miterlimit="8" fill="none" fill-rule="evenodd"/><path d="M1455.5 1000.5 1455.5 1101.78" stroke="#000000" stroke-width="6.875" stroke-miterlimit="8" fill="none" fill-rule="evenodd"/><text font-family="Times New Roman,Times New Roman_MSFontService,sans-serif" font-weight="400" font-size="83" transform="matrix(1 0 0 1 288.195 1366)">480P<tspan font-size="83" x="534.221" y="0">1080P</tspan><tspan font-size="83" x="1123.89" y="0">4K</tspan></text><path d="M1027.07 369.217 1165.69 525.201 1160.55 529.768 1021.93 373.784ZM1170.35 514.925 1178.34 544.614 1149.8 533.192Z" fill="#FF0000"/><path d="M1343.07 654.217 1481.69 810.201 1476.55 814.768 1337.93 658.784ZM1486.35 799.925 1494.34 829.614 1465.8 818.192Z" fill="#FF0000"/><text font-family="Times New Roman,Times New Roman_MSFontService,sans-serif" font-weight="400" font-size="83" transform="matrix(1 0 0 1 1118.15 452)">4K<tspan font-size="83" x="297.765" y="291">4K</tspan></text><path d="M868.938 489.5 868.938 589.051 862.063 589.051 862.063 489.5ZM879.25 584.468 865.5 611.968 851.75 584.468Z" fill="#FF0000"/><text font-family="Times New Roman,Times New Roman_MSFontService,sans-serif" font-weight="400" font-size="83" transform="matrix(1 0 0 1 870.25 580)">1080P</text><path d="M868.938 745.5 868.938 845.051 862.063 845.051 862.063 745.5ZM879.25 840.468 865.5 867.968 851.75 840.468Z" fill="#FF0000"/><text font-family="Times New Roman,Times New Roman_MSFontService,sans-serif" font-weight="400" font-size="83" transform="matrix(1 0 0 1 868.739 830)">1080P</text><path d="M2.43834-2.42299 140.916 136.932 136.039 141.778-2.43834 2.42299ZM145 126.412 154.631 155.61 125.494 145.796Z" fill="#FF0000" transform="matrix(-1 0 0 1 797.131 422.5)"/><path d="M2.43834-2.42299 140.916 136.932 136.039 141.778-2.43834 2.42299ZM145 126.412 154.631 155.61 125.494 145.796Z" fill="#FF0000" transform="matrix(-1 0 0 1 520.131 683.5)"/><text font-family="Times New Roman,Times New Roman_MSFontService,sans-serif" font-weight="400" font-size="83" transform="matrix(1 0 0 1 550.779 490)">480P<tspan font-size="83" x="-248.678" y="245">480P</tspan><tspan font-size="83" x="-248.678" y="988">Shortest Path Based Routing Method</tspan><tspan font-size="83" x="984.917" y="581">4K</tspan></text><path d="M1521.94 996.5 1521.94 1071.04 1515.06 1071.04 1515.06 996.5ZM1532.25 1066.46 1518.5 1093.96 1504.75 1066.46Z" fill="#FF0000"/><text font-family="Times New Roman,Times New Roman_MSFontService,sans-serif" font-weight="400" font-size="83" transform="matrix(1 0 0 1 885.286 1068)">1080P</text><path d="M868.938 1004.5 868.938 1079.04 862.063 1079.04 862.063 1004.5ZM879.25 1074.46 865.5 1101.96 851.75 1074.46Z" fill="#FF0000"/><text font-family="Times New Roman,Times New Roman_MSFontService,sans-serif" font-weight="400" font-size="83" transform="matrix(1 0 0 1 426.974 1075)">480P</text><path d="M412.937 1000.5 412.938 1075.04 406.063 1075.04 406.062 1000.5ZM423.25 1070.46 409.5 1097.96 395.75 1070.46Z" fill="#FF0000"/><text font-family="Times New Roman,Times New Roman_MSFontService,sans-serif" font-weight="400" font-size="83" transform="matrix(1 0 0 1 1713.59 1474)">Minimum Transmission Cost Based Routing Method</text><path d="M2131 659.5C2131 614.489 2167.49 578 2212.5 578 2257.51 578 2294 614.489 2294 659.5 2294 704.511 2257.51 741 2212.5 741 2167.49 741 2131 704.511 2131 659.5Z" fill="#4472C4" fill-rule="evenodd"/><path d="M2439 659.5C2439 614.489 2475.26 578 2520 578 2564.74 578 2601 614.489 2601 659.5 2601 704.511 2564.74 741 2520 741 2475.26 741 2439 704.511 2439 659.5Z" fill="#4472C4" fill-rule="evenodd"/><path d="M2747 659.5C2747 614.489 2783.26 578 2828 578 2872.74 578 2909 614.489 2909 659.5 2909 704.511 2872.74 741 2828 741 2783.26 741 2747 704.511 2747 659.5Z" fill="#4472C4" fill-rule="evenodd"/><path d="M2439 901C2439 856.265 2475.26 820 2520 820 2564.74 820 2601 856.265 2601 901 2601 945.735 2564.74 982 2520 982 2475.26 982 2439 945.735 2439 901Z" fill="#4472C4" fill-rule="evenodd"/><path d="M1905 901C1905 856.265 1941.27 820 1986 820 2030.74 820 2067 856.265 2067 901 2067 945.735 2030.74 982 1986 982 1941.27 982 1905 945.735 1905 901Z" fill="#4472C4" fill-rule="evenodd"/><path d="M2960 901C2960 856.265 2996.26 820 3041 820 3085.73 820 3122 856.265 3122 901 3122 945.735 3085.73 982 3041 982 2996.26 982 2960 945.735 2960 901Z" fill="#4472C4" fill-rule="evenodd"/><path d="M2439 456 2520 316 2601 456Z" fill="#C55A11" fill-rule="evenodd"/><path d="M0 140 81 0 162 140Z" fill="#FFD966" fill-rule="evenodd" transform="matrix(1 0 0 -1 1905 1223)"/><path d="M0 140 81 0 162 140Z" fill="#FFD966" fill-rule="evenodd" transform="matrix(1 0 0 -1 2442 1223)"/><path d="M0 140 81.0001 0 162 140Z" fill="#FFD966" fill-rule="evenodd" transform="matrix(1 0 0 -1 2978 1223)"/><path d="M2294.5 660.5 2439.89 660.5" stroke="#000000" stroke-width="6.875" stroke-miterlimit="8" fill="none" fill-rule="evenodd"/><path d="M2601.5 660.5 2746.89 660.5" stroke="#000000" stroke-width="6.875" stroke-miterlimit="8" fill="none" fill-rule="evenodd"/><path d="M2067.5 901.5 2439.43 901.501" stroke="#000000" stroke-width="6.875" stroke-miterlimit="8" fill="none" fill-rule="evenodd"/><path d="M2601.5 901.5 2959.9 901.501" stroke="#000000" stroke-width="6.875" stroke-miterlimit="8" fill="none" fill-rule="evenodd"/><path d="M0 0 226.537 203.615" stroke="#000000" stroke-width="6.875" stroke-miterlimit="8" fill="none" fill-rule="evenodd" transform="matrix(1 0 0 -1 2294.5 660.115)"/><path d="M2520.5 456.5 2520.5 578.967" stroke="#000000" stroke-width="6.875" stroke-miterlimit="8" fill="none" fill-rule="evenodd"/><path d="M2747.04 660.115 2520.5 456.5" stroke="#000000" stroke-width="6.875" stroke-miterlimit="8" fill="none" fill-rule="evenodd"/><path d="M0 0 226.537 241.189" stroke="#000000" stroke-width="6.875" stroke-miterlimit="8" fill="none" fill-rule="evenodd" transform="matrix(-1 0 0 1 2294.04 660.5)"/><path d="M2520.5 741.5 2520.5 820.394" stroke="#000000" stroke-width="6.875" stroke-miterlimit="8" fill="none" fill-rule="evenodd"/><path d="M2747.5 660.5 2960.51 901.689" stroke="#000000" stroke-width="6.875" stroke-miterlimit="8" fill="none" fill-rule="evenodd"/><path d="M1986.5 982.5 1986.5 1083.78" stroke="#000000" stroke-width="6.875" stroke-miterlimit="8" fill="none" fill-rule="evenodd"/><path d="M2526.5 982.5 2526.5 1083.78" stroke="#000000" stroke-width="6.875" stroke-miterlimit="8" fill="none" fill-rule="evenodd"/><path d="M3059.5 982.5 3059.5 1083.78" stroke="#000000" stroke-width="6.875" stroke-miterlimit="8" fill="none" fill-rule="evenodd"/><text font-family="Times New Roman,Times New Roman_MSFontService,sans-serif" font-weight="400" font-size="83" transform="matrix(1 0 0 1 1892.26 1347)">480P<tspan font-size="83" x="534.221" y="0">1080P</tspan><tspan font-size="83" x="1123.89" y="0">4K</tspan></text><path d="M2631.07 350.216 2769.69 506.201 2764.55 510.768 2625.93 354.783ZM2774.35 495.924 2782.34 525.614 2753.8 514.192Z" fill="#FF0000"/><path d="M2947.07 635.217 3085.69 791.201 3080.55 795.768 2941.93 639.784ZM3090.35 780.925 3098.34 810.615 3069.8 799.192Z" fill="#FF0000"/><text font-family="Times New Roman,Times New Roman_MSFontService,sans-serif" font-weight="400" font-size="83" transform="matrix(1 0 0 1 2722.22 433)">4K<tspan font-size="83" x="297.765" y="291">4K</tspan><tspan font-size="83" x="-462.791" y="577">480P</tspan></text><path d="M3.35996e-06-3.4375 346.305-3.43716 346.305 3.43784-3.35996e-06 3.4375ZM341.721-13.7497 369.221 0.000360892 341.721 13.7503Z" fill="#FF0000" transform="matrix(-1 0 0 1 2439.72 941.5)"/><text font-family="Times New Roman,Times New Roman_MSFontService,sans-serif" font-weight="400" font-size="83" transform="matrix(1 0 0 1 3155.01 1050)">4K</text><path d="M3140.94 975.5 3140.94 1050.04 3134.06 1050.04 3134.06 975.5ZM3151.25 1045.46 3137.5 1072.96 3123.75 1045.46Z" fill="#FF0000"/><text font-family="Times New Roman,Times New Roman_MSFontService,sans-serif" font-weight="400" font-size="83" transform="matrix(1 0 0 1 2593.27 1055)">1080P</text><path d="M2579.94 980.5 2579.94 1055.04 2573.06 1055.04 2573.06 980.5ZM2590.25 1050.46 2576.5 1077.96 2562.75 1050.46Z" fill="#FF0000"/><text font-family="Times New Roman,Times New Roman_MSFontService,sans-serif" font-weight="400" font-size="83" transform="matrix(1 0 0 1 2046.29 1054)">480P</text><path d="M2032.94 979.5 2032.94 1054.04 2026.06 1054.04 2026.06 979.5ZM2043.25 1049.46 2029.5 1076.96 2015.75 1049.46Z" fill="#FF0000"/><path d="M1108 1661 1189 1521 1270 1661Z" fill="#C55A11" fill-rule="evenodd"/><text font-family="Times New Roman,Times New Roman_MSFontService,sans-serif" font-weight="400" font-size="83" transform="matrix(1 0 0 1 1319.13 1624)">Sender</text><path d="M0 140 81.0001 0 162 140Z" fill="#FFD966" fill-rule="evenodd" transform="matrix(1 0 0 -1 1636 1659)"/><text font-family="Times New Roman,Times New Roman_MSFontService,sans-serif" font-weight="400" font-size="83" transform="matrix(1 0 0 1 1862.11 1619)">Receiver</text><path d="M2239 1577.5C2239 1532.49 2275.26 1496 2320 1496 2364.74 1496 2401 1532.49 2401 1577.5 2401 1622.51 2364.74 1659 2320 1659 2275.26 1659 2239 1622.51 2239 1577.5Z" fill="#4472C4" fill-rule="evenodd"/><text font-family="Times New Roman,Times New Roman_MSFontService,sans-serif" font-weight="400" font-size="83" transform="matrix(1 0 0 1 2471.93 1626)">Router</text><path d="M3.35996e-06-3.4375 346.305-3.43716 346.305 3.43784-3.35996e-06 3.4375ZM341.721-13.7497 369.221 0.000360892 341.721 13.7503Z" fill="#FF0000" transform="matrix(-1 0 0 1 2966.72 935.5)"/><text font-family="Times New Roman,Times New Roman_MSFontService,sans-serif" font-weight="400" font-size="83" transform="matrix(1 0 0 1 2651.92 877)">1080P</text></g></svg>