<svg width="3239" height="1169" xmlns="http://www.w3.org/2000/svg" xmlns:xlink="http://www.w3.org/1999/xlink" overflow="hidden"><defs><clipPath id="clip0"><rect x="206" y="437" width="3239" height="1169"/></clipPath></defs><g clip-path="url(#clip0)" transform="translate(-206 -437)"><path d="M707 562C707 517.265 743.265 481 788 481 832.735 481 869 517.265 869 562 869 606.735 832.735 643 788 643 743.265 643 707 606.735 707 562Z" fill="#FFD966" fill-rule="evenodd"/><path d="M1087 562C1087 517.265 1123.26 481 1168 481 1212.73 481 1249 517.265 1249 562 1249 606.735 1212.73 643 1168 643 1123.26 643 1087 606.735 1087 562Z" fill="#FFD966" fill-rule="evenodd"/><path d="M1316 1176.5C1316 1131.49 1352.26 1095 1397 1095 1441.74 1095 1478 1131.49 1478 1176.5 1478 1221.51 1441.74 1258 1397 1258 1352.26 1258 1316 1221.51 1316 1176.5Z" fill="#4472C4" fill-rule="evenodd"/><path d="M483 1176.5C483 1131.49 519.265 1095 564 1095 608.735 1095 645 1131.49 645 1176.5 645 1221.51 608.735 1258 564 1258 519.265 1258 483 1221.51 483 1176.5Z" fill="#4472C4" fill-rule="evenodd"/><path d="M761 1176.5C761 1131.49 797.265 1095 842 1095 886.735 1095 923 1131.49 923 1176.5 923 1221.51 886.735 1258 842 1258 797.265 1258 761 1221.51 761 1176.5Z" fill="#4472C4" fill-rule="evenodd"/><path d="M1038 1176.5C1038 1131.49 1074.27 1095 1119 1095 1163.74 1095 1200 1131.49 1200 1176.5 1200 1221.51 1163.74 1258 1119 1258 1074.27 1258 1038 1221.51 1038 1176.5Z" fill="#4472C4" fill-rule="evenodd"/><path d="M206 1176.5C206 1131.49 242.265 1095 287 1095 331.735 1095 368 1131.49 368 1176.5 368 1221.51 331.735 1258 287 1258 242.265 1258 206 1221.51 206 1176.5Z" fill="#4472C4" fill-rule="evenodd"/><path d="M1593 1176.5C1593 1131.49 1629.26 1095 1674 1095 1718.73 1095 1755 1131.49 1755 1176.5 1755 1221.51 1718.73 1258 1674 1258 1629.26 1258 1593 1221.51 1593 1176.5Z" fill="#4472C4" fill-rule="evenodd"/><path d="M0 0 500.949 452.624" stroke="#000000" stroke-width="6.875" stroke-miterlimit="8" fill="none" fill-rule="evenodd" transform="matrix(-1 0 0 1 788.449 643.5)"/><path d="M0 0 223.425 452.624" stroke="#000000" stroke-width="6.875" stroke-miterlimit="8" fill="none" fill-rule="evenodd" transform="matrix(-1 0 0 1 787.925 643.5)"/><path d="M788.5 643.5 842.6 1096.12" stroke="#000000" stroke-width="6.875" stroke-miterlimit="8" fill="none" fill-rule="evenodd"/><path d="M801.5 668.5 1119.6 1095.88" stroke="#000000" stroke-width="6.875" stroke-miterlimit="8" fill="none" fill-rule="evenodd"/><path d="M788.5 643.5 1397.65 1096.12" stroke="#000000" stroke-width="6.875" stroke-miterlimit="8" fill="none" fill-rule="evenodd"/><path d="M788.5 643.5 1675.17 1096.12" stroke="#000000" stroke-width="6.875" stroke-miterlimit="8" fill="none" fill-rule="evenodd"/><path d="M0 0 881.441 452.624" stroke="#000000" stroke-width="6.875" stroke-miterlimit="8" fill="none" fill-rule="evenodd" transform="matrix(-1 0 0 1 1168.94 643.5)"/><path d="M0 0 603.916 452.624" stroke="#000000" stroke-width="6.875" stroke-miterlimit="8" fill="none" fill-rule="evenodd" transform="matrix(-1 0 0 1 1168.42 643.5)"/><path d="M0 0 326.392 452.624" stroke="#000000" stroke-width="6.875" stroke-miterlimit="8" fill="none" fill-rule="evenodd" transform="matrix(-1 0 0 1 1168.89 643.5)"/><path d="M0 0 48.8674 452.624" stroke="#000000" stroke-width="6.875" stroke-miterlimit="8" fill="none" fill-rule="evenodd" transform="matrix(-1 0 0 1 1168.37 643.5)"/><path d="M1168.5 643.5 1397.16 1096.12" stroke="#000000" stroke-width="6.875" stroke-miterlimit="8" fill="none" fill-rule="evenodd"/><path d="M1168.5 643.5 1674.68 1096.12" stroke="#000000" stroke-width="6.875" stroke-miterlimit="8" fill="none" fill-rule="evenodd"/><path d="M287 1493C287 1448.27 323.265 1412 368 1412 412.735 1412 449 1448.27 449 1493 449 1537.74 412.735 1574 368 1574 323.265 1574 287 1537.74 287 1493Z" fill="#FFD966" fill-rule="evenodd"/><text font-family="Times New Roman,Times New Roman_MSFontService,sans-serif" font-weight="400" font-size="83" transform="matrix(1 0 0 1 529.551 1537)">Server<tspan font-size="83" x="586.463" y="0">User</tspan></text><path d="M907 1493C907 1448.27 943.265 1412 988 1412 1032.74 1412 1069 1448.27 1069 1493 1069 1537.74 1032.74 1574 988 1574 943.265 1574 907 1537.74 907 1493Z" fill="#4472C4" fill-rule="evenodd"/><text font-family="Times New Roman,Times New Roman_MSFontService,sans-serif" font-weight="400" font-size="83" transform="matrix(1 0 0 1 483.726 1375)">Server Based Edge Computing</text><path d="M2365 587C2365 542.265 2401.26 506 2446 506 2490.73 506 2527 542.265 2527 587 2527 631.735 2490.73 668 2446 668 2401.26 668 2365 631.735 2365 587Z" fill="#4472C4" fill-rule="evenodd"/><path d="M2472 905C2472 860.265 2508.26 824 2553 824 2597.74 824 2634 860.265 2634 905 2634 949.735 2597.74 986 2553 986 2508.26 986 2472 949.735 2472 905Z" fill="#4472C4" fill-rule="evenodd"/><path d="M2823 788C2823 743.265 2859.26 707 2904 707 2948.74 707 2985 743.265 2985 788 2985 832.735 2948.74 869 2904 869 2859.26 869 2823 832.735 2823 788Z" fill="#4472C4" fill-rule="evenodd"/><path d="M1979 788C1979 743.265 2015.26 707 2060 707 2104.73 707 2141 743.265 2141 788 2141 832.735 2104.73 869 2060 869 2015.26 869 1979 832.735 1979 788Z" fill="#4472C4" fill-rule="evenodd"/><path d="M2012 1092C2012 1047.26 2048.26 1011 2093 1011 2137.73 1011 2174 1047.26 2174 1092 2174 1136.73 2137.73 1173 2093 1173 2048.26 1173 2012 1136.73 2012 1092Z" fill="#4472C4" fill-rule="evenodd"/><path d="M2985 1067.5C2985 1022.49 3021.27 986 3066 986 3110.74 986 3147 1022.49 3147 1067.5 3147 1112.51 3110.74 1149 3066 1149 3021.27 1149 2985 1112.51 2985 1067.5Z" fill="#4472C4" fill-rule="evenodd"/><path d="M2446 1197C2446 1152.27 2482.27 1116 2527 1116 2571.74 1116 2608 1152.27 2608 1197 2608 1241.74 2571.74 1278 2527 1278 2482.27 1278 2446 1241.74 2446 1197Z" fill="#4472C4" fill-rule="evenodd"/><path d="M2991 518.5C2991 473.489 3027.26 437 3072 437 3116.73 437 3153 473.489 3153 518.5 3153 563.511 3116.73 600 3072 600 3027.26 600 2991 563.511 2991 518.5Z" fill="#4472C4" fill-rule="evenodd"/><path d="M3283 869C3283 824.265 3319.27 788 3364 788 3408.74 788 3445 824.265 3445 869 3445 913.735 3408.74 950 3364 950 3319.27 950 3283 913.735 3283 869Z" fill="#4472C4" fill-rule="evenodd"/><path d="M2060.5 869.5 2093.23 1011.06" stroke="#000000" stroke-width="6.875" stroke-miterlimit="8" fill="none" fill-rule="evenodd"/><path d="M0 0 402.995 48.1135" stroke="#000000" stroke-width="6.875" stroke-miterlimit="8" fill="none" fill-rule="evenodd" transform="matrix(1 0 0 -1 2093.5 1011.61)"/><path d="M2446.5 668.5 2496.33 848.252" stroke="#000000" stroke-width="6.875" stroke-miterlimit="8" fill="none" fill-rule="evenodd"/><path d="M0 0 212.122 59.8323" stroke="#000000" stroke-width="6.875" stroke-miterlimit="8" fill="none" fill-rule="evenodd" transform="matrix(1 0 0 -1 2634.5 905.332)"/><path d="M0 0 29.8158 212.281" stroke="#000000" stroke-width="6.875" stroke-miterlimit="8" fill="none" fill-rule="evenodd" transform="matrix(1 0 0 -1 2985.5 788.781)"/><path d="M2985.5 788.5 3283.4 869.647" stroke="#000000" stroke-width="6.875" stroke-miterlimit="8" fill="none" fill-rule="evenodd"/><path d="M2985.5 788.5 3066.65 986.859" stroke="#000000" stroke-width="6.875" stroke-miterlimit="8" fill="none" fill-rule="evenodd"/><path d="M2496.5 963.5 2527.82 1116.96" stroke="#000000" stroke-width="6.875" stroke-miterlimit="8" fill="none" fill-rule="evenodd"/><text font-family="Times New Roman,Times New Roman_MSFontService,sans-serif" font-weight="400" font-size="83" transform="matrix(1 0 0 1 2275.72 1363)">Serverless Edge Computing</text></g></svg>