<?xml version="1.0" encoding="utf-8" standalone="no"?>
<!DOCTYPE svg PUBLIC "-//W3C//DTD SVG 1.1//EN"
  "http://www.w3.org/Graphics/SVG/1.1/DTD/svg11.dtd">
<!-- Created with matplotlib (https://matplotlib.org/) -->
<svg height="576pt" version="1.1" viewBox="0 0 720 576" width="720pt" xmlns="http://www.w3.org/2000/svg" xmlns:xlink="http://www.w3.org/1999/xlink">
 <metadata>
  <rdf:RDF xmlns:cc="http://creativecommons.org/ns#" xmlns:dc="http://purl.org/dc/elements/1.1/" xmlns:rdf="http://www.w3.org/1999/02/22-rdf-syntax-ns#">
   <cc:Work>
    <dc:type rdf:resource="http://purl.org/dc/dcmitype/StillImage"/>
    <dc:date>2023-09-18T14:08:18.209642</dc:date>
    <dc:format>image/svg+xml</dc:format>
    <dc:creator>
     <cc:Agent>
      <dc:title>Matplotlib v3.3.4, https://matplotlib.org/</dc:title>
     </cc:Agent>
    </dc:creator>
   </cc:Work>
  </rdf:RDF>
 </metadata>
 <defs>
  <style type="text/css">*{stroke-linecap:butt;stroke-linejoin:round;}</style>
 </defs>
 <g id="figure_1">
  <g id="patch_1">
   <path d="M 0 576 
L 720 576 
L 720 0 
L 0 0 
z
" style="fill:#ffffff;"/>
  </g>
  <g id="axes_1">
   <g id="patch_2">
    <path d="M 46.74125 533.93875 
L 706.005 533.93875 
L 706.005 26.88 
L 46.74125 26.88 
z
" style="fill:#ffffff;"/>
   </g>
   <g id="matplotlib.axis_1">
    <g id="xtick_1">
     <g id="line2d_1">
      <path clip-path="url(#p1f632f4e7b)" d="M 46.74125 533.93875 
L 46.74125 26.88 
" style="fill:none;stroke:#b0b0b0;stroke-linecap:square;stroke-width:0.8;"/>
     </g>
     <g id="line2d_2">
      <defs>
       <path d="M 0 0 
L 0 3.5 
" id="m020cfd1775" style="stroke:#000000;stroke-width:0.8;"/>
      </defs>
      <g>
       <use style="stroke:#000000;stroke-width:0.8;" x="46.74125" xlink:href="#m020cfd1775" y="533.93875"/>
      </g>
     </g>
     <g id="text_1">
      <!-- 0 -->
      <g transform="translate(43.56 548.537187)scale(0.1 -0.1)">
       <defs>
        <path d="M 31.78125 66.40625 
Q 24.171875 66.40625 20.328125 58.90625 
Q 16.5 51.421875 16.5 36.375 
Q 16.5 21.390625 20.328125 13.890625 
Q 24.171875 6.390625 31.78125 6.390625 
Q 39.453125 6.390625 43.28125 13.890625 
Q 47.125 21.390625 47.125 36.375 
Q 47.125 51.421875 43.28125 58.90625 
Q 39.453125 66.40625 31.78125 66.40625 
z
M 31.78125 74.21875 
Q 44.046875 74.21875 50.515625 64.515625 
Q 56.984375 54.828125 56.984375 36.375 
Q 56.984375 17.96875 50.515625 8.265625 
Q 44.046875 -1.421875 31.78125 -1.421875 
Q 19.53125 -1.421875 13.0625 8.265625 
Q 6.59375 17.96875 6.59375 36.375 
Q 6.59375 54.828125 13.0625 64.515625 
Q 19.53125 74.21875 31.78125 74.21875 
z
" id="DejaVuSans-48"/>
       </defs>
       <use xlink:href="#DejaVuSans-48"/>
      </g>
     </g>
    </g>
    <g id="xtick_2">
     <g id="line2d_3">
      <path clip-path="url(#p1f632f4e7b)" d="M 129.149219 533.93875 
L 129.149219 26.88 
" style="fill:none;stroke:#b0b0b0;stroke-linecap:square;stroke-width:0.8;"/>
     </g>
     <g id="line2d_4">
      <g>
       <use style="stroke:#000000;stroke-width:0.8;" x="129.149219" xlink:href="#m020cfd1775" y="533.93875"/>
      </g>
     </g>
     <g id="text_2">
      <!-- 1 -->
      <g transform="translate(125.967969 548.537187)scale(0.1 -0.1)">
       <defs>
        <path d="M 12.40625 8.296875 
L 28.515625 8.296875 
L 28.515625 63.921875 
L 10.984375 60.40625 
L 10.984375 69.390625 
L 28.421875 72.90625 
L 38.28125 72.90625 
L 38.28125 8.296875 
L 54.390625 8.296875 
L 54.390625 0 
L 12.40625 0 
z
" id="DejaVuSans-49"/>
       </defs>
       <use xlink:href="#DejaVuSans-49"/>
      </g>
     </g>
    </g>
    <g id="xtick_3">
     <g id="line2d_5">
      <path clip-path="url(#p1f632f4e7b)" d="M 211.557187 533.93875 
L 211.557187 26.88 
" style="fill:none;stroke:#b0b0b0;stroke-linecap:square;stroke-width:0.8;"/>
     </g>
     <g id="line2d_6">
      <g>
       <use style="stroke:#000000;stroke-width:0.8;" x="211.557187" xlink:href="#m020cfd1775" y="533.93875"/>
      </g>
     </g>
     <g id="text_3">
      <!-- 2 -->
      <g transform="translate(208.375937 548.537187)scale(0.1 -0.1)">
       <defs>
        <path d="M 19.1875 8.296875 
L 53.609375 8.296875 
L 53.609375 0 
L 7.328125 0 
L 7.328125 8.296875 
Q 12.9375 14.109375 22.625 23.890625 
Q 32.328125 33.6875 34.8125 36.53125 
Q 39.546875 41.84375 41.421875 45.53125 
Q 43.3125 49.21875 43.3125 52.78125 
Q 43.3125 58.59375 39.234375 62.25 
Q 35.15625 65.921875 28.609375 65.921875 
Q 23.96875 65.921875 18.8125 64.3125 
Q 13.671875 62.703125 7.8125 59.421875 
L 7.8125 69.390625 
Q 13.765625 71.78125 18.9375 73 
Q 24.125 74.21875 28.421875 74.21875 
Q 39.75 74.21875 46.484375 68.546875 
Q 53.21875 62.890625 53.21875 53.421875 
Q 53.21875 48.921875 51.53125 44.890625 
Q 49.859375 40.875 45.40625 35.40625 
Q 44.1875 33.984375 37.640625 27.21875 
Q 31.109375 20.453125 19.1875 8.296875 
z
" id="DejaVuSans-50"/>
       </defs>
       <use xlink:href="#DejaVuSans-50"/>
      </g>
     </g>
    </g>
    <g id="xtick_4">
     <g id="line2d_7">
      <path clip-path="url(#p1f632f4e7b)" d="M 293.965156 533.93875 
L 293.965156 26.88 
" style="fill:none;stroke:#b0b0b0;stroke-linecap:square;stroke-width:0.8;"/>
     </g>
     <g id="line2d_8">
      <g>
       <use style="stroke:#000000;stroke-width:0.8;" x="293.965156" xlink:href="#m020cfd1775" y="533.93875"/>
      </g>
     </g>
     <g id="text_4">
      <!-- 3 -->
      <g transform="translate(290.783906 548.537187)scale(0.1 -0.1)">
       <defs>
        <path d="M 40.578125 39.3125 
Q 47.65625 37.796875 51.625 33 
Q 55.609375 28.21875 55.609375 21.1875 
Q 55.609375 10.40625 48.1875 4.484375 
Q 40.765625 -1.421875 27.09375 -1.421875 
Q 22.515625 -1.421875 17.65625 -0.515625 
Q 12.796875 0.390625 7.625 2.203125 
L 7.625 11.71875 
Q 11.71875 9.328125 16.59375 8.109375 
Q 21.484375 6.890625 26.8125 6.890625 
Q 36.078125 6.890625 40.9375 10.546875 
Q 45.796875 14.203125 45.796875 21.1875 
Q 45.796875 27.640625 41.28125 31.265625 
Q 36.765625 34.90625 28.71875 34.90625 
L 20.21875 34.90625 
L 20.21875 43.015625 
L 29.109375 43.015625 
Q 36.375 43.015625 40.234375 45.921875 
Q 44.09375 48.828125 44.09375 54.296875 
Q 44.09375 59.90625 40.109375 62.90625 
Q 36.140625 65.921875 28.71875 65.921875 
Q 24.65625 65.921875 20.015625 65.03125 
Q 15.375 64.15625 9.8125 62.3125 
L 9.8125 71.09375 
Q 15.4375 72.65625 20.34375 73.4375 
Q 25.25 74.21875 29.59375 74.21875 
Q 40.828125 74.21875 47.359375 69.109375 
Q 53.90625 64.015625 53.90625 55.328125 
Q 53.90625 49.265625 50.4375 45.09375 
Q 46.96875 40.921875 40.578125 39.3125 
z
" id="DejaVuSans-51"/>
       </defs>
       <use xlink:href="#DejaVuSans-51"/>
      </g>
     </g>
    </g>
    <g id="xtick_5">
     <g id="line2d_9">
      <path clip-path="url(#p1f632f4e7b)" d="M 376.373125 533.93875 
L 376.373125 26.88 
" style="fill:none;stroke:#b0b0b0;stroke-linecap:square;stroke-width:0.8;"/>
     </g>
     <g id="line2d_10">
      <g>
       <use style="stroke:#000000;stroke-width:0.8;" x="376.373125" xlink:href="#m020cfd1775" y="533.93875"/>
      </g>
     </g>
     <g id="text_5">
      <!-- 4 -->
      <g transform="translate(373.191875 548.537187)scale(0.1 -0.1)">
       <defs>
        <path d="M 37.796875 64.3125 
L 12.890625 25.390625 
L 37.796875 25.390625 
z
M 35.203125 72.90625 
L 47.609375 72.90625 
L 47.609375 25.390625 
L 58.015625 25.390625 
L 58.015625 17.1875 
L 47.609375 17.1875 
L 47.609375 0 
L 37.796875 0 
L 37.796875 17.1875 
L 4.890625 17.1875 
L 4.890625 26.703125 
z
" id="DejaVuSans-52"/>
       </defs>
       <use xlink:href="#DejaVuSans-52"/>
      </g>
     </g>
    </g>
    <g id="xtick_6">
     <g id="line2d_11">
      <path clip-path="url(#p1f632f4e7b)" d="M 458.781094 533.93875 
L 458.781094 26.88 
" style="fill:none;stroke:#b0b0b0;stroke-linecap:square;stroke-width:0.8;"/>
     </g>
     <g id="line2d_12">
      <g>
       <use style="stroke:#000000;stroke-width:0.8;" x="458.781094" xlink:href="#m020cfd1775" y="533.93875"/>
      </g>
     </g>
     <g id="text_6">
      <!-- 5 -->
      <g transform="translate(455.599844 548.537187)scale(0.1 -0.1)">
       <defs>
        <path d="M 10.796875 72.90625 
L 49.515625 72.90625 
L 49.515625 64.59375 
L 19.828125 64.59375 
L 19.828125 46.734375 
Q 21.96875 47.46875 24.109375 47.828125 
Q 26.265625 48.1875 28.421875 48.1875 
Q 40.625 48.1875 47.75 41.5 
Q 54.890625 34.8125 54.890625 23.390625 
Q 54.890625 11.625 47.5625 5.09375 
Q 40.234375 -1.421875 26.90625 -1.421875 
Q 22.3125 -1.421875 17.546875 -0.640625 
Q 12.796875 0.140625 7.71875 1.703125 
L 7.71875 11.625 
Q 12.109375 9.234375 16.796875 8.0625 
Q 21.484375 6.890625 26.703125 6.890625 
Q 35.15625 6.890625 40.078125 11.328125 
Q 45.015625 15.765625 45.015625 23.390625 
Q 45.015625 31 40.078125 35.4375 
Q 35.15625 39.890625 26.703125 39.890625 
Q 22.75 39.890625 18.8125 39.015625 
Q 14.890625 38.140625 10.796875 36.28125 
z
" id="DejaVuSans-53"/>
       </defs>
       <use xlink:href="#DejaVuSans-53"/>
      </g>
     </g>
    </g>
    <g id="xtick_7">
     <g id="line2d_13">
      <path clip-path="url(#p1f632f4e7b)" d="M 541.189062 533.93875 
L 541.189062 26.88 
" style="fill:none;stroke:#b0b0b0;stroke-linecap:square;stroke-width:0.8;"/>
     </g>
     <g id="line2d_14">
      <g>
       <use style="stroke:#000000;stroke-width:0.8;" x="541.189062" xlink:href="#m020cfd1775" y="533.93875"/>
      </g>
     </g>
     <g id="text_7">
      <!-- 6 -->
      <g transform="translate(538.007812 548.537187)scale(0.1 -0.1)">
       <defs>
        <path d="M 33.015625 40.375 
Q 26.375 40.375 22.484375 35.828125 
Q 18.609375 31.296875 18.609375 23.390625 
Q 18.609375 15.53125 22.484375 10.953125 
Q 26.375 6.390625 33.015625 6.390625 
Q 39.65625 6.390625 43.53125 10.953125 
Q 47.40625 15.53125 47.40625 23.390625 
Q 47.40625 31.296875 43.53125 35.828125 
Q 39.65625 40.375 33.015625 40.375 
z
M 52.59375 71.296875 
L 52.59375 62.3125 
Q 48.875 64.0625 45.09375 64.984375 
Q 41.3125 65.921875 37.59375 65.921875 
Q 27.828125 65.921875 22.671875 59.328125 
Q 17.53125 52.734375 16.796875 39.40625 
Q 19.671875 43.65625 24.015625 45.921875 
Q 28.375 48.1875 33.59375 48.1875 
Q 44.578125 48.1875 50.953125 41.515625 
Q 57.328125 34.859375 57.328125 23.390625 
Q 57.328125 12.15625 50.6875 5.359375 
Q 44.046875 -1.421875 33.015625 -1.421875 
Q 20.359375 -1.421875 13.671875 8.265625 
Q 6.984375 17.96875 6.984375 36.375 
Q 6.984375 53.65625 15.1875 63.9375 
Q 23.390625 74.21875 37.203125 74.21875 
Q 40.921875 74.21875 44.703125 73.484375 
Q 48.484375 72.75 52.59375 71.296875 
z
" id="DejaVuSans-54"/>
       </defs>
       <use xlink:href="#DejaVuSans-54"/>
      </g>
     </g>
    </g>
    <g id="xtick_8">
     <g id="line2d_15">
      <path clip-path="url(#p1f632f4e7b)" d="M 623.597031 533.93875 
L 623.597031 26.88 
" style="fill:none;stroke:#b0b0b0;stroke-linecap:square;stroke-width:0.8;"/>
     </g>
     <g id="line2d_16">
      <g>
       <use style="stroke:#000000;stroke-width:0.8;" x="623.597031" xlink:href="#m020cfd1775" y="533.93875"/>
      </g>
     </g>
     <g id="text_8">
      <!-- 7 -->
      <g transform="translate(620.415781 548.537187)scale(0.1 -0.1)">
       <defs>
        <path d="M 8.203125 72.90625 
L 55.078125 72.90625 
L 55.078125 68.703125 
L 28.609375 0 
L 18.3125 0 
L 43.21875 64.59375 
L 8.203125 64.59375 
z
" id="DejaVuSans-55"/>
       </defs>
       <use xlink:href="#DejaVuSans-55"/>
      </g>
     </g>
    </g>
    <g id="xtick_9">
     <g id="line2d_17">
      <path clip-path="url(#p1f632f4e7b)" d="M 706.005 533.93875 
L 706.005 26.88 
" style="fill:none;stroke:#b0b0b0;stroke-linecap:square;stroke-width:0.8;"/>
     </g>
     <g id="line2d_18">
      <g>
       <use style="stroke:#000000;stroke-width:0.8;" x="706.005" xlink:href="#m020cfd1775" y="533.93875"/>
      </g>
     </g>
     <g id="text_9">
      <!-- 8 -->
      <g transform="translate(702.82375 548.537187)scale(0.1 -0.1)">
       <defs>
        <path d="M 31.78125 34.625 
Q 24.75 34.625 20.71875 30.859375 
Q 16.703125 27.09375 16.703125 20.515625 
Q 16.703125 13.921875 20.71875 10.15625 
Q 24.75 6.390625 31.78125 6.390625 
Q 38.8125 6.390625 42.859375 10.171875 
Q 46.921875 13.96875 46.921875 20.515625 
Q 46.921875 27.09375 42.890625 30.859375 
Q 38.875 34.625 31.78125 34.625 
z
M 21.921875 38.8125 
Q 15.578125 40.375 12.03125 44.71875 
Q 8.5 49.078125 8.5 55.328125 
Q 8.5 64.0625 14.71875 69.140625 
Q 20.953125 74.21875 31.78125 74.21875 
Q 42.671875 74.21875 48.875 69.140625 
Q 55.078125 64.0625 55.078125 55.328125 
Q 55.078125 49.078125 51.53125 44.71875 
Q 48 40.375 41.703125 38.8125 
Q 48.828125 37.15625 52.796875 32.3125 
Q 56.78125 27.484375 56.78125 20.515625 
Q 56.78125 9.90625 50.3125 4.234375 
Q 43.84375 -1.421875 31.78125 -1.421875 
Q 19.734375 -1.421875 13.25 4.234375 
Q 6.78125 9.90625 6.78125 20.515625 
Q 6.78125 27.484375 10.78125 32.3125 
Q 14.796875 37.15625 21.921875 38.8125 
z
M 18.3125 54.390625 
Q 18.3125 48.734375 21.84375 45.5625 
Q 25.390625 42.390625 31.78125 42.390625 
Q 38.140625 42.390625 41.71875 45.5625 
Q 45.3125 48.734375 45.3125 54.390625 
Q 45.3125 60.0625 41.71875 63.234375 
Q 38.140625 66.40625 31.78125 66.40625 
Q 25.390625 66.40625 21.84375 63.234375 
Q 18.3125 60.0625 18.3125 54.390625 
z
" id="DejaVuSans-56"/>
       </defs>
       <use xlink:href="#DejaVuSans-56"/>
      </g>
     </g>
    </g>
    <g id="text_10">
     <!-- Train_time -->
     <g transform="translate(350.583281 562.215312)scale(0.1 -0.1)">
      <defs>
       <path d="M -0.296875 72.90625 
L 61.375 72.90625 
L 61.375 64.59375 
L 35.5 64.59375 
L 35.5 0 
L 25.59375 0 
L 25.59375 64.59375 
L -0.296875 64.59375 
z
" id="DejaVuSans-84"/>
       <path d="M 41.109375 46.296875 
Q 39.59375 47.171875 37.8125 47.578125 
Q 36.03125 48 33.890625 48 
Q 26.265625 48 22.1875 43.046875 
Q 18.109375 38.09375 18.109375 28.8125 
L 18.109375 0 
L 9.078125 0 
L 9.078125 54.6875 
L 18.109375 54.6875 
L 18.109375 46.1875 
Q 20.953125 51.171875 25.484375 53.578125 
Q 30.03125 56 36.53125 56 
Q 37.453125 56 38.578125 55.875 
Q 39.703125 55.765625 41.0625 55.515625 
z
" id="DejaVuSans-114"/>
       <path d="M 34.28125 27.484375 
Q 23.390625 27.484375 19.1875 25 
Q 14.984375 22.515625 14.984375 16.5 
Q 14.984375 11.71875 18.140625 8.90625 
Q 21.296875 6.109375 26.703125 6.109375 
Q 34.1875 6.109375 38.703125 11.40625 
Q 43.21875 16.703125 43.21875 25.484375 
L 43.21875 27.484375 
z
M 52.203125 31.203125 
L 52.203125 0 
L 43.21875 0 
L 43.21875 8.296875 
Q 40.140625 3.328125 35.546875 0.953125 
Q 30.953125 -1.421875 24.3125 -1.421875 
Q 15.921875 -1.421875 10.953125 3.296875 
Q 6 8.015625 6 15.921875 
Q 6 25.140625 12.171875 29.828125 
Q 18.359375 34.515625 30.609375 34.515625 
L 43.21875 34.515625 
L 43.21875 35.40625 
Q 43.21875 41.609375 39.140625 45 
Q 35.0625 48.390625 27.6875 48.390625 
Q 23 48.390625 18.546875 47.265625 
Q 14.109375 46.140625 10.015625 43.890625 
L 10.015625 52.203125 
Q 14.9375 54.109375 19.578125 55.046875 
Q 24.21875 56 28.609375 56 
Q 40.484375 56 46.34375 49.84375 
Q 52.203125 43.703125 52.203125 31.203125 
z
" id="DejaVuSans-97"/>
       <path d="M 9.421875 54.6875 
L 18.40625 54.6875 
L 18.40625 0 
L 9.421875 0 
z
M 9.421875 75.984375 
L 18.40625 75.984375 
L 18.40625 64.59375 
L 9.421875 64.59375 
z
" id="DejaVuSans-105"/>
       <path d="M 54.890625 33.015625 
L 54.890625 0 
L 45.90625 0 
L 45.90625 32.71875 
Q 45.90625 40.484375 42.875 44.328125 
Q 39.84375 48.1875 33.796875 48.1875 
Q 26.515625 48.1875 22.3125 43.546875 
Q 18.109375 38.921875 18.109375 30.90625 
L 18.109375 0 
L 9.078125 0 
L 9.078125 54.6875 
L 18.109375 54.6875 
L 18.109375 46.1875 
Q 21.34375 51.125 25.703125 53.5625 
Q 30.078125 56 35.796875 56 
Q 45.21875 56 50.046875 50.171875 
Q 54.890625 44.34375 54.890625 33.015625 
z
" id="DejaVuSans-110"/>
       <path d="M 50.984375 -16.609375 
L 50.984375 -23.578125 
L -0.984375 -23.578125 
L -0.984375 -16.609375 
z
" id="DejaVuSans-95"/>
       <path d="M 18.3125 70.21875 
L 18.3125 54.6875 
L 36.8125 54.6875 
L 36.8125 47.703125 
L 18.3125 47.703125 
L 18.3125 18.015625 
Q 18.3125 11.328125 20.140625 9.421875 
Q 21.96875 7.515625 27.59375 7.515625 
L 36.8125 7.515625 
L 36.8125 0 
L 27.59375 0 
Q 17.1875 0 13.234375 3.875 
Q 9.28125 7.765625 9.28125 18.015625 
L 9.28125 47.703125 
L 2.6875 47.703125 
L 2.6875 54.6875 
L 9.28125 54.6875 
L 9.28125 70.21875 
z
" id="DejaVuSans-116"/>
       <path d="M 52 44.1875 
Q 55.375 50.25 60.0625 53.125 
Q 64.75 56 71.09375 56 
Q 79.640625 56 84.28125 50.015625 
Q 88.921875 44.046875 88.921875 33.015625 
L 88.921875 0 
L 79.890625 0 
L 79.890625 32.71875 
Q 79.890625 40.578125 77.09375 44.375 
Q 74.3125 48.1875 68.609375 48.1875 
Q 61.625 48.1875 57.5625 43.546875 
Q 53.515625 38.921875 53.515625 30.90625 
L 53.515625 0 
L 44.484375 0 
L 44.484375 32.71875 
Q 44.484375 40.625 41.703125 44.40625 
Q 38.921875 48.1875 33.109375 48.1875 
Q 26.21875 48.1875 22.15625 43.53125 
Q 18.109375 38.875 18.109375 30.90625 
L 18.109375 0 
L 9.078125 0 
L 9.078125 54.6875 
L 18.109375 54.6875 
L 18.109375 46.1875 
Q 21.1875 51.21875 25.484375 53.609375 
Q 29.78125 56 35.6875 56 
Q 41.65625 56 45.828125 52.96875 
Q 50 49.953125 52 44.1875 
z
" id="DejaVuSans-109"/>
       <path d="M 56.203125 29.59375 
L 56.203125 25.203125 
L 14.890625 25.203125 
Q 15.484375 15.921875 20.484375 11.0625 
Q 25.484375 6.203125 34.421875 6.203125 
Q 39.59375 6.203125 44.453125 7.46875 
Q 49.3125 8.734375 54.109375 11.28125 
L 54.109375 2.78125 
Q 49.265625 0.734375 44.1875 -0.34375 
Q 39.109375 -1.421875 33.890625 -1.421875 
Q 20.796875 -1.421875 13.15625 6.1875 
Q 5.515625 13.8125 5.515625 26.8125 
Q 5.515625 40.234375 12.765625 48.109375 
Q 20.015625 56 32.328125 56 
Q 43.359375 56 49.78125 48.890625 
Q 56.203125 41.796875 56.203125 29.59375 
z
M 47.21875 32.234375 
Q 47.125 39.59375 43.09375 43.984375 
Q 39.0625 48.390625 32.421875 48.390625 
Q 24.90625 48.390625 20.390625 44.140625 
Q 15.875 39.890625 15.1875 32.171875 
z
" id="DejaVuSans-101"/>
      </defs>
      <use xlink:href="#DejaVuSans-84"/>
      <use x="46.333984" xlink:href="#DejaVuSans-114"/>
      <use x="87.447266" xlink:href="#DejaVuSans-97"/>
      <use x="148.726562" xlink:href="#DejaVuSans-105"/>
      <use x="176.509766" xlink:href="#DejaVuSans-110"/>
      <use x="239.888672" xlink:href="#DejaVuSans-95"/>
      <use x="289.888672" xlink:href="#DejaVuSans-116"/>
      <use x="329.097656" xlink:href="#DejaVuSans-105"/>
      <use x="356.880859" xlink:href="#DejaVuSans-109"/>
      <use x="454.292969" xlink:href="#DejaVuSans-101"/>
     </g>
    </g>
   </g>
   <g id="matplotlib.axis_2">
    <g id="ytick_1">
     <g id="line2d_19">
      <path clip-path="url(#p1f632f4e7b)" d="M 46.74125 511.096287 
L 706.005 511.096287 
" style="fill:none;stroke:#b0b0b0;stroke-linecap:square;stroke-width:0.8;"/>
     </g>
     <g id="line2d_20">
      <defs>
       <path d="M 0 0 
L -3.5 0 
" id="mc3139781c7" style="stroke:#000000;stroke-width:0.8;"/>
      </defs>
      <g>
       <use style="stroke:#000000;stroke-width:0.8;" x="46.74125" xlink:href="#mc3139781c7" y="511.096287"/>
      </g>
     </g>
     <g id="text_11">
      <!-- −4 -->
      <g transform="translate(24.999063 514.895506)scale(0.1 -0.1)">
       <defs>
        <path d="M 10.59375 35.5 
L 73.1875 35.5 
L 73.1875 27.203125 
L 10.59375 27.203125 
z
" id="DejaVuSans-8722"/>
       </defs>
       <use xlink:href="#DejaVuSans-8722"/>
       <use x="83.789062" xlink:href="#DejaVuSans-52"/>
      </g>
     </g>
    </g>
    <g id="ytick_2">
     <g id="line2d_21">
      <path clip-path="url(#p1f632f4e7b)" d="M 46.74125 416.797846 
L 706.005 416.797846 
" style="fill:none;stroke:#b0b0b0;stroke-linecap:square;stroke-width:0.8;"/>
     </g>
     <g id="line2d_22">
      <g>
       <use style="stroke:#000000;stroke-width:0.8;" x="46.74125" xlink:href="#mc3139781c7" y="416.797846"/>
      </g>
     </g>
     <g id="text_12">
      <!-- −3 -->
      <g transform="translate(24.999063 420.597065)scale(0.1 -0.1)">
       <use xlink:href="#DejaVuSans-8722"/>
       <use x="83.789062" xlink:href="#DejaVuSans-51"/>
      </g>
     </g>
    </g>
    <g id="ytick_3">
     <g id="line2d_23">
      <path clip-path="url(#p1f632f4e7b)" d="M 46.74125 322.499406 
L 706.005 322.499406 
" style="fill:none;stroke:#b0b0b0;stroke-linecap:square;stroke-width:0.8;"/>
     </g>
     <g id="line2d_24">
      <g>
       <use style="stroke:#000000;stroke-width:0.8;" x="46.74125" xlink:href="#mc3139781c7" y="322.499406"/>
      </g>
     </g>
     <g id="text_13">
      <!-- −2 -->
      <g transform="translate(24.999063 326.298624)scale(0.1 -0.1)">
       <use xlink:href="#DejaVuSans-8722"/>
       <use x="83.789062" xlink:href="#DejaVuSans-50"/>
      </g>
     </g>
    </g>
    <g id="ytick_4">
     <g id="line2d_25">
      <path clip-path="url(#p1f632f4e7b)" d="M 46.74125 228.200965 
L 706.005 228.200965 
" style="fill:none;stroke:#b0b0b0;stroke-linecap:square;stroke-width:0.8;"/>
     </g>
     <g id="line2d_26">
      <g>
       <use style="stroke:#000000;stroke-width:0.8;" x="46.74125" xlink:href="#mc3139781c7" y="228.200965"/>
      </g>
     </g>
     <g id="text_14">
      <!-- −1 -->
      <g transform="translate(24.999063 232.000184)scale(0.1 -0.1)">
       <use xlink:href="#DejaVuSans-8722"/>
       <use x="83.789062" xlink:href="#DejaVuSans-49"/>
      </g>
     </g>
    </g>
    <g id="ytick_5">
     <g id="line2d_27">
      <path clip-path="url(#p1f632f4e7b)" d="M 46.74125 133.902525 
L 706.005 133.902525 
" style="fill:none;stroke:#b0b0b0;stroke-linecap:square;stroke-width:0.8;"/>
     </g>
     <g id="line2d_28">
      <g>
       <use style="stroke:#000000;stroke-width:0.8;" x="46.74125" xlink:href="#mc3139781c7" y="133.902525"/>
      </g>
     </g>
     <g id="text_15">
      <!-- 0 -->
      <g transform="translate(33.37875 137.701743)scale(0.1 -0.1)">
       <use xlink:href="#DejaVuSans-48"/>
      </g>
     </g>
    </g>
    <g id="ytick_6">
     <g id="line2d_29">
      <path clip-path="url(#p1f632f4e7b)" d="M 46.74125 39.604084 
L 706.005 39.604084 
" style="fill:none;stroke:#b0b0b0;stroke-linecap:square;stroke-width:0.8;"/>
     </g>
     <g id="line2d_30">
      <g>
       <use style="stroke:#000000;stroke-width:0.8;" x="46.74125" xlink:href="#mc3139781c7" y="39.604084"/>
      </g>
     </g>
     <g id="text_16">
      <!-- 1 -->
      <g transform="translate(33.37875 43.403303)scale(0.1 -0.1)">
       <use xlink:href="#DejaVuSans-49"/>
      </g>
     </g>
    </g>
    <g id="text_17">
     <!-- Train_loss -->
     <g transform="translate(18.64125 304.560938)rotate(-90)scale(0.1 -0.1)">
      <defs>
       <path d="M 9.421875 75.984375 
L 18.40625 75.984375 
L 18.40625 0 
L 9.421875 0 
z
" id="DejaVuSans-108"/>
       <path d="M 30.609375 48.390625 
Q 23.390625 48.390625 19.1875 42.75 
Q 14.984375 37.109375 14.984375 27.296875 
Q 14.984375 17.484375 19.15625 11.84375 
Q 23.34375 6.203125 30.609375 6.203125 
Q 37.796875 6.203125 41.984375 11.859375 
Q 46.1875 17.53125 46.1875 27.296875 
Q 46.1875 37.015625 41.984375 42.703125 
Q 37.796875 48.390625 30.609375 48.390625 
z
M 30.609375 56 
Q 42.328125 56 49.015625 48.375 
Q 55.71875 40.765625 55.71875 27.296875 
Q 55.71875 13.875 49.015625 6.21875 
Q 42.328125 -1.421875 30.609375 -1.421875 
Q 18.84375 -1.421875 12.171875 6.21875 
Q 5.515625 13.875 5.515625 27.296875 
Q 5.515625 40.765625 12.171875 48.375 
Q 18.84375 56 30.609375 56 
z
" id="DejaVuSans-111"/>
       <path d="M 44.28125 53.078125 
L 44.28125 44.578125 
Q 40.484375 46.53125 36.375 47.5 
Q 32.28125 48.484375 27.875 48.484375 
Q 21.1875 48.484375 17.84375 46.4375 
Q 14.5 44.390625 14.5 40.28125 
Q 14.5 37.15625 16.890625 35.375 
Q 19.28125 33.59375 26.515625 31.984375 
L 29.59375 31.296875 
Q 39.15625 29.25 43.1875 25.515625 
Q 47.21875 21.78125 47.21875 15.09375 
Q 47.21875 7.46875 41.1875 3.015625 
Q 35.15625 -1.421875 24.609375 -1.421875 
Q 20.21875 -1.421875 15.453125 -0.5625 
Q 10.6875 0.296875 5.421875 2 
L 5.421875 11.28125 
Q 10.40625 8.6875 15.234375 7.390625 
Q 20.0625 6.109375 24.8125 6.109375 
Q 31.15625 6.109375 34.5625 8.28125 
Q 37.984375 10.453125 37.984375 14.40625 
Q 37.984375 18.0625 35.515625 20.015625 
Q 33.0625 21.96875 24.703125 23.78125 
L 21.578125 24.515625 
Q 13.234375 26.265625 9.515625 29.90625 
Q 5.8125 33.546875 5.8125 39.890625 
Q 5.8125 47.609375 11.28125 51.796875 
Q 16.75 56 26.8125 56 
Q 31.78125 56 36.171875 55.265625 
Q 40.578125 54.546875 44.28125 53.078125 
z
" id="DejaVuSans-115"/>
      </defs>
      <use xlink:href="#DejaVuSans-84"/>
      <use x="46.333984" xlink:href="#DejaVuSans-114"/>
      <use x="87.447266" xlink:href="#DejaVuSans-97"/>
      <use x="148.726562" xlink:href="#DejaVuSans-105"/>
      <use x="176.509766" xlink:href="#DejaVuSans-110"/>
      <use x="239.888672" xlink:href="#DejaVuSans-95"/>
      <use x="289.888672" xlink:href="#DejaVuSans-108"/>
      <use x="317.671875" xlink:href="#DejaVuSans-111"/>
      <use x="378.853516" xlink:href="#DejaVuSans-115"/>
      <use x="430.953125" xlink:href="#DejaVuSans-115"/>
     </g>
    </g>
   </g>
   <g id="line2d_31">
    <path clip-path="url(#p1f632f4e7b)" d="M 46.74125 235.510017 
L 77.675172 237.850423 
L 90.048741 238.800905 
L 99.947596 239.962875 
L 108.609094 241.53903 
L 112.321165 242.612686 
L 117.270593 244.173303 
L 119.745306 245.27163 
L 124.694734 248.193656 
L 127.169448 249.708712 
L 128.406805 250.727246 
L 130.881518 253.291947 
L 134.593589 257.7372 
L 137.068303 260.80186 
L 138.30566 262.760795 
L 140.780373 267.337811 
L 143.255087 272.817264 
L 146.967158 281.48774 
L 149.441872 288.42896 
L 151.916585 295.823064 
L 156.866013 310.99714 
L 159.340727 320.415456 
L 161.815441 330.054157 
L 169.239582 357.818233 
L 172.951653 371.838641 
L 176.663723 385.52397 
L 177.90108 389.35394 
L 180.375794 395.929201 
L 186.562578 411.085045 
L 187.799935 413.614227 
L 189.037292 415.702052 
L 191.512006 418.813998 
L 196.461433 424.861217 
L 198.936147 428.10168 
L 203.885575 433.389848 
L 206.360289 436.038133 
L 210.072359 441.12428 
L 218.733857 452.265551 
L 227.395356 462.137446 
L 234.819497 470.111212 
L 239.768925 474.340006 
L 248.430423 481.813211 
L 255.854564 488.165724 
L 258.329278 489.052158 
L 265.753419 491.188193 
L 271.940204 492.389753 
L 290.500557 496.002683 
L 299.162055 497.680893 
L 305.34884 498.60317 
L 320.197122 500.138176 
L 327.621264 500.927811 
L 359.792543 502.921087 
L 384.53968 503.731246 
L 389.489108 503.87238 
L 399.387963 504.1076 
L 426.609815 505.150044 
L 436.50867 504.904002 
L 453.831666 505.79796 
L 457.543737 505.800679 
L 463.730521 505.859328 
L 478.578804 505.97704 
L 493.427087 505.578958 
L 498.376514 506.02303 
L 504.563299 506.611549 
L 513.224797 506.852455 
L 523.123652 507.093595 
L 528.073079 507.159176 
L 536.734578 507.197151 
L 546.633433 507.424321 
L 556.532288 507.560918 
L 571.380571 507.859306 
L 580.042069 507.957376 
L 589.940924 508.053578 
L 597.365065 508.008831 
L 604.789207 507.976834 
L 618.400132 508.09367 
L 625.824274 508.234708 
L 636.960486 508.305683 
L 661.707623 508.727584 
L 672.843835 508.664381 
L 686.454761 508.493688 
L 695.116259 508.711215 
L 709.964542 508.672394 
L 717.388683 508.592762 
L 721 508.676459 
L 721 508.676459 
" style="fill:none;stroke:#1f77b4;stroke-linecap:square;stroke-width:1.5;"/>
   </g>
   <g id="line2d_32">
    <path clip-path="url(#p1f632f4e7b)" d="M 46.74125 235.111304 
L 65.301603 239.035607 
L 69.013674 240.139609 
L 71.488388 241.180885 
L 73.963102 242.439204 
L 76.437815 244.269241 
L 77.675172 245.313815 
L 78.912529 246.563038 
L 80.149886 248.150432 
L 82.6246 251.890738 
L 83.861957 254.173652 
L 85.099314 256.947388 
L 86.33667 260.14234 
L 87.574027 263.648113 
L 88.811384 267.554055 
L 91.286098 276.970551 
L 92.523455 282.264858 
L 94.998169 294.296113 
L 97.472882 307.854501 
L 104.897024 349.180085 
L 109.846451 372.196414 
L 112.321165 381.296825 
L 114.795879 389.6688 
L 117.270593 396.741027 
L 119.745306 402.742215 
L 122.22002 408.091402 
L 125.932091 414.645507 
L 128.406805 418.380108 
L 130.881518 421.878593 
L 133.356232 424.787314 
L 137.068303 428.893154 
L 144.492444 436.40605 
L 148.204515 439.970367 
L 153.153942 444.317833 
L 158.10337 448.265371 
L 164.290154 452.965238 
L 169.239582 456.442395 
L 172.951653 458.848957 
L 184.087865 465.247053 
L 193.98672 470.140598 
L 198.936147 472.364169 
L 203.885575 474.301299 
L 217.496501 479.224691 
L 223.683285 481.194615 
L 229.870069 483.050155 
L 236.056854 484.768139 
L 249.66778 487.764082 
L 255.854564 488.920242 
L 280.601702 492.696935 
L 285.551129 493.420822 
L 289.2632 493.966678 
L 295.449985 494.576279 
L 300.399412 495.072928 
L 305.34884 495.60498 
L 315.247695 496.438355 
L 322.671836 496.902778 
L 326.383907 497.101844 
L 337.520119 498.019752 
L 344.94426 498.408108 
L 352.368401 498.802062 
L 363.504613 499.331928 
L 367.216684 499.555809 
L 373.403468 499.801969 
L 390.726465 500.415178 
L 396.913249 500.614298 
L 408.049461 501.010471 
L 451.356952 502.043991 
L 456.30638 502.121295 
L 463.730521 502.323433 
L 471.154663 502.45618 
L 477.341447 502.686876 
L 489.715016 502.905466 
L 498.376514 503.026642 
L 502.088585 503.108429 
L 514.462154 503.222638 
L 528.073079 503.500095 
L 530.547793 503.514533 
L 535.497221 503.716517 
L 561.481715 503.999923 
L 572.617927 504.217068 
L 602.314493 504.428086 
L 608.501277 504.613434 
L 620.874846 504.727139 
L 628.298987 504.666811 
L 648.096698 504.912181 
L 655.520839 504.798233 
L 670.369122 505.163094 
L 682.742691 505.25625 
L 714.91397 505.419232 
L 721 505.479525 
L 721 505.479525 
" style="fill:none;stroke:#ff7f0e;stroke-dasharray:9.6,2.4,1.5,2.4;stroke-dashoffset:0;stroke-width:1.5;"/>
   </g>
   <g id="line2d_33">
    <path clip-path="url(#p1f632f4e7b)" d="M 46.74125 235.256023 
L 91.286098 238.374015 
L 104.897024 239.893563 
L 107.371738 240.214558 
L 109.846451 240.820632 
L 112.321165 241.55793 
L 125.932091 246.097918 
L 127.169448 246.96266 
L 128.406805 248.332691 
L 130.881518 251.428083 
L 138.30566 262.622683 
L 144.492444 271.983316 
L 145.729801 274.163239 
L 146.967158 277.680021 
L 150.679229 291.46347 
L 165.527511 348.16669 
L 170.476939 369.733245 
L 184.087865 425.042905 
L 185.325221 428.896677 
L 186.562578 431.937817 
L 192.749363 444.89147 
L 203.885575 467.918632 
L 205.122932 469.943412 
L 207.597645 471.626661 
L 223.683285 481.785126 
L 224.920642 482.360752 
L 229.870069 484.041374 
L 244.718352 488.822765 
L 254.617207 490.964211 
L 264.516062 492.978048 
L 288.025843 496.550859 
L 307.823553 498.695402 
L 322.671836 500.017808 
L 332.570691 500.392515 
L 352.368401 501.204834 
L 367.216684 502.054691 
L 383.302324 503.051002 
L 416.71096 504.126691 
L 431.559242 504.439347 
L 486.002945 505.716681 
L 503.325942 505.970269 
L 518.174224 506.211748 
L 529.310436 505.962669 
L 539.209291 505.837772 
L 561.481715 506.107073 
L 577.567355 506.177286 
L 596.127708 506.936962 
L 601.077136 506.924116 
L 619.637489 506.850593 
L 641.909913 507.175663 
L 657.995553 507.205471 
L 674.081192 507.138129 
L 692.641546 507.449547 
L 717.388683 507.53938 
L 721 507.592659 
L 721 507.592659 
" style="fill:none;stroke:#2ca02c;stroke-linecap:square;stroke-width:1.5;"/>
   </g>
   <g id="line2d_34">
    <path clip-path="url(#p1f632f4e7b)" d="M 46.74125 233.597797 
L 69.013674 240.032292 
L 71.488388 241.335268 
L 73.963102 243.121989 
L 77.675172 246.036432 
L 78.912529 247.267359 
L 80.149886 248.927597 
L 81.387243 251.028623 
L 83.861957 256.610393 
L 87.574027 265.537093 
L 88.811384 269.160832 
L 90.048741 273.385493 
L 91.286098 278.413275 
L 94.998169 295.612183 
L 103.659667 335.473595 
L 107.371738 352.513042 
L 109.846451 362.467043 
L 118.50795 388.838898 
L 119.745306 391.932099 
L 123.457377 400.101057 
L 125.932091 405.352358 
L 128.406805 409.871262 
L 129.644162 411.996173 
L 135.830946 420.907382 
L 138.30566 424.035835 
L 140.780373 426.874672 
L 146.967158 433.612138 
L 154.391299 440.892187 
L 158.10337 444.248124 
L 166.764868 451.508391 
L 171.714296 455.276021 
L 175.426366 457.884477 
L 179.138437 460.256296 
L 185.325221 463.931109 
L 189.037292 465.99326 
L 193.98672 468.553169 
L 197.69879 470.294598 
L 206.360289 473.884805 
L 215.021787 477.035718 
L 222.445928 479.327405 
L 233.58214 482.567836 
L 243.480995 485.019897 
L 247.193066 485.81365 
L 254.617207 487.210393 
L 269.46549 489.505798 
L 280.601702 490.857293 
L 294.212628 492.26252 
L 310.298267 493.772214 
L 323.909193 494.69928 
L 332.570691 495.255639 
L 343.706903 496.033623 
L 393.201179 498.431512 
L 412.998889 499.098062 
L 421.660387 499.329411 
L 427.847172 499.547754 
L 434.033956 499.862165 
L 437.746027 499.898304 
L 443.932811 499.955471 
L 451.356952 500.237935 
L 466.205235 500.79956 
L 483.528232 501.106162 
L 488.477659 501.260755 
L 495.9018 501.567638 
L 515.699511 501.740189 
L 524.361009 501.939804 
L 547.87079 501.945639 
L 721 501.635984 
L 721 501.635984 
" style="fill:none;stroke:#d62728;stroke-dasharray:9.6,2.4,1.5,2.4;stroke-dashoffset:0;stroke-width:1.5;"/>
   </g>
   <g id="line2d_35">
    <path clip-path="url(#p1f632f4e7b)" d="M 46.74125 201.98733 
L 143.255087 270.953529 
L 144.492444 272.738768 
L 145.729801 275.690479 
L 155.628656 307.168802 
L 190.274649 417.510868 
L 191.512006 421.048606 
L 192.749363 423.491268 
L 196.461433 427.350487 
L 239.768925 471.343808 
L 241.006281 472.353098 
L 243.480995 473.147503 
L 288.025843 485.577201 
L 291.737914 486.100172 
L 337.520119 491.880296 
L 385.777037 495.71705 
L 438.983384 498.078927 
L 492.18973 499.802925 
L 593.652995 502.180425 
L 721 503.908567 
L 721 503.908567 
" style="fill:none;stroke:#9467bd;stroke-linecap:square;stroke-width:1.5;"/>
   </g>
   <g id="line2d_36">
    <path clip-path="url(#p1f632f4e7b)" d="M 46.74125 178.557603 
L 94.998169 278.68812 
L 96.235526 281.578638 
L 97.472882 285.366547 
L 98.710239 289.756103 
L 102.42231 304.371306 
L 106.134381 320.203483 
L 118.50795 375.623725 
L 119.745306 380.587422 
L 120.982663 384.73988 
L 122.22002 388.418474 
L 124.694734 394.366604 
L 127.169448 399.386728 
L 129.644162 403.831071 
L 142.01773 422.565973 
L 144.492444 425.682485 
L 148.204515 429.747576 
L 153.153942 434.86689 
L 165.527511 447.019334 
L 168.002225 449.179965 
L 171.714296 452.063195 
L 176.663723 455.649849 
L 189.037292 464.067906 
L 192.749363 466.202565 
L 197.69879 468.652466 
L 202.648218 470.873387 
L 212.547073 475.04268 
L 216.259144 476.328916 
L 222.445928 478.169408 
L 231.107426 480.482986 
L 238.531568 482.346619 
L 244.718352 483.661716 
L 253.37985 485.301011 
L 265.753419 487.490891 
L 284.313773 490.253842 
L 294.212628 491.416339 
L 312.772981 493.246284 
L 338.757476 495.299429 
L 353.605758 496.208425 
L 378.352896 497.464176 
L 396.913249 498.191376 
L 412.998889 498.691082 
L 441.458097 499.517635 
L 455.069023 499.896912 
L 518.174224 500.986564 
L 530.547793 501.267216 
L 567.6685 501.987744 
L 645.621984 502.465697 
L 672.843835 502.770906 
L 714.91397 503.00277 
L 721 502.990764 
L 721 502.990764 
" style="fill:none;stroke:#8c564b;stroke-dasharray:9.6,2.4,1.5,2.4;stroke-dashoffset:0;stroke-width:1.5;"/>
   </g>
   <g id="line2d_37">
    <path clip-path="url(#p1f632f4e7b)" d="M 46.74125 49.928125 
L 238.531568 438.370908 
L 239.768925 439.676469 
L 280.601702 460.845846 
L 332.570691 487.742363 
L 333.808048 488.109879 
L 336.282762 488.404264 
L 430.321885 495.701097 
L 530.547793 499.280909 
L 627.061631 501.130068 
L 721 502.029117 
L 721 502.029117 
" style="fill:none;stroke:#e377c2;stroke-linecap:square;stroke-width:1.5;"/>
   </g>
   <g id="line2d_38">
    <path clip-path="url(#p1f632f4e7b)" d="M 46.74125 103.378874 
L 139.543017 391.813712 
L 140.780373 395.32392 
L 142.01773 398.437361 
L 143.255087 400.987541 
L 144.492444 403.143732 
L 145.729801 404.748452 
L 149.441872 408.760388 
L 186.562578 448.07648 
L 189.037292 450.340579 
L 190.274649 451.368538 
L 191.512006 452.237118 
L 193.98672 453.592101 
L 234.819497 474.65048 
L 237.294211 475.557604 
L 241.006281 476.472379 
L 281.839059 485.935263 
L 285.551129 486.483664 
L 330.095977 491.28608 
L 346.181617 492.331542 
L 380.82761 494.46137 
L 429.084528 496.483172 
L 490.952373 498.34215 
L 524.361009 499.145518 
L 617.162775 500.541985 
L 721 501.340891 
L 721 501.340891 
" style="fill:none;stroke:#7f7f7f;stroke-dasharray:9.6,2.4,1.5,2.4;stroke-dashoffset:0;stroke-width:1.5;"/>
   </g>
   <g id="patch_3">
    <path d="M 46.74125 533.93875 
L 46.74125 26.88 
" style="fill:none;stroke:#000000;stroke-linecap:square;stroke-linejoin:miter;stroke-width:0.8;"/>
   </g>
   <g id="patch_4">
    <path d="M 706.005 533.93875 
L 706.005 26.88 
" style="fill:none;stroke:#000000;stroke-linecap:square;stroke-linejoin:miter;stroke-width:0.8;"/>
   </g>
   <g id="patch_5">
    <path d="M 46.74125 533.93875 
L 706.005 533.93875 
" style="fill:none;stroke:#000000;stroke-linecap:square;stroke-linejoin:miter;stroke-width:0.8;"/>
   </g>
   <g id="patch_6">
    <path d="M 46.74125 26.88 
L 706.005 26.88 
" style="fill:none;stroke:#000000;stroke-linecap:square;stroke-linejoin:miter;stroke-width:0.8;"/>
   </g>
   <g id="text_18">
    <!-- Average Convergence Performance from All ST Folders -->
    <g transform="translate(212.175625 20.88)scale(0.12 -0.12)">
     <defs>
      <path d="M 34.1875 63.1875 
L 20.796875 26.90625 
L 47.609375 26.90625 
z
M 28.609375 72.90625 
L 39.796875 72.90625 
L 67.578125 0 
L 57.328125 0 
L 50.6875 18.703125 
L 17.828125 18.703125 
L 11.1875 0 
L 0.78125 0 
z
" id="DejaVuSans-65"/>
      <path d="M 2.984375 54.6875 
L 12.5 54.6875 
L 29.59375 8.796875 
L 46.6875 54.6875 
L 56.203125 54.6875 
L 35.6875 0 
L 23.484375 0 
z
" id="DejaVuSans-118"/>
      <path d="M 45.40625 27.984375 
Q 45.40625 37.75 41.375 43.109375 
Q 37.359375 48.484375 30.078125 48.484375 
Q 22.859375 48.484375 18.828125 43.109375 
Q 14.796875 37.75 14.796875 27.984375 
Q 14.796875 18.265625 18.828125 12.890625 
Q 22.859375 7.515625 30.078125 7.515625 
Q 37.359375 7.515625 41.375 12.890625 
Q 45.40625 18.265625 45.40625 27.984375 
z
M 54.390625 6.78125 
Q 54.390625 -7.171875 48.1875 -13.984375 
Q 42 -20.796875 29.203125 -20.796875 
Q 24.46875 -20.796875 20.265625 -20.09375 
Q 16.0625 -19.390625 12.109375 -17.921875 
L 12.109375 -9.1875 
Q 16.0625 -11.328125 19.921875 -12.34375 
Q 23.78125 -13.375 27.78125 -13.375 
Q 36.625 -13.375 41.015625 -8.765625 
Q 45.40625 -4.15625 45.40625 5.171875 
L 45.40625 9.625 
Q 42.625 4.78125 38.28125 2.390625 
Q 33.9375 0 27.875 0 
Q 17.828125 0 11.671875 7.65625 
Q 5.515625 15.328125 5.515625 27.984375 
Q 5.515625 40.671875 11.671875 48.328125 
Q 17.828125 56 27.875 56 
Q 33.9375 56 38.28125 53.609375 
Q 42.625 51.21875 45.40625 46.390625 
L 45.40625 54.6875 
L 54.390625 54.6875 
z
" id="DejaVuSans-103"/>
      <path id="DejaVuSans-32"/>
      <path d="M 64.40625 67.28125 
L 64.40625 56.890625 
Q 59.421875 61.53125 53.78125 63.8125 
Q 48.140625 66.109375 41.796875 66.109375 
Q 29.296875 66.109375 22.65625 58.46875 
Q 16.015625 50.828125 16.015625 36.375 
Q 16.015625 21.96875 22.65625 14.328125 
Q 29.296875 6.6875 41.796875 6.6875 
Q 48.140625 6.6875 53.78125 8.984375 
Q 59.421875 11.28125 64.40625 15.921875 
L 64.40625 5.609375 
Q 59.234375 2.09375 53.4375 0.328125 
Q 47.65625 -1.421875 41.21875 -1.421875 
Q 24.65625 -1.421875 15.125 8.703125 
Q 5.609375 18.84375 5.609375 36.375 
Q 5.609375 53.953125 15.125 64.078125 
Q 24.65625 74.21875 41.21875 74.21875 
Q 47.75 74.21875 53.53125 72.484375 
Q 59.328125 70.75 64.40625 67.28125 
z
" id="DejaVuSans-67"/>
      <path d="M 48.78125 52.59375 
L 48.78125 44.1875 
Q 44.96875 46.296875 41.140625 47.34375 
Q 37.3125 48.390625 33.40625 48.390625 
Q 24.65625 48.390625 19.8125 42.84375 
Q 14.984375 37.3125 14.984375 27.296875 
Q 14.984375 17.28125 19.8125 11.734375 
Q 24.65625 6.203125 33.40625 6.203125 
Q 37.3125 6.203125 41.140625 7.25 
Q 44.96875 8.296875 48.78125 10.40625 
L 48.78125 2.09375 
Q 45.015625 0.34375 40.984375 -0.53125 
Q 36.96875 -1.421875 32.421875 -1.421875 
Q 20.0625 -1.421875 12.78125 6.34375 
Q 5.515625 14.109375 5.515625 27.296875 
Q 5.515625 40.671875 12.859375 48.328125 
Q 20.21875 56 33.015625 56 
Q 37.15625 56 41.109375 55.140625 
Q 45.0625 54.296875 48.78125 52.59375 
z
" id="DejaVuSans-99"/>
      <path d="M 19.671875 64.796875 
L 19.671875 37.40625 
L 32.078125 37.40625 
Q 38.96875 37.40625 42.71875 40.96875 
Q 46.484375 44.53125 46.484375 51.125 
Q 46.484375 57.671875 42.71875 61.234375 
Q 38.96875 64.796875 32.078125 64.796875 
z
M 9.8125 72.90625 
L 32.078125 72.90625 
Q 44.34375 72.90625 50.609375 67.359375 
Q 56.890625 61.8125 56.890625 51.125 
Q 56.890625 40.328125 50.609375 34.8125 
Q 44.34375 29.296875 32.078125 29.296875 
L 19.671875 29.296875 
L 19.671875 0 
L 9.8125 0 
z
" id="DejaVuSans-80"/>
      <path d="M 37.109375 75.984375 
L 37.109375 68.5 
L 28.515625 68.5 
Q 23.6875 68.5 21.796875 66.546875 
Q 19.921875 64.59375 19.921875 59.515625 
L 19.921875 54.6875 
L 34.71875 54.6875 
L 34.71875 47.703125 
L 19.921875 47.703125 
L 19.921875 0 
L 10.890625 0 
L 10.890625 47.703125 
L 2.296875 47.703125 
L 2.296875 54.6875 
L 10.890625 54.6875 
L 10.890625 58.5 
Q 10.890625 67.625 15.140625 71.796875 
Q 19.390625 75.984375 28.609375 75.984375 
z
" id="DejaVuSans-102"/>
      <path d="M 53.515625 70.515625 
L 53.515625 60.890625 
Q 47.90625 63.578125 42.921875 64.890625 
Q 37.9375 66.21875 33.296875 66.21875 
Q 25.25 66.21875 20.875 63.09375 
Q 16.5 59.96875 16.5 54.203125 
Q 16.5 49.359375 19.40625 46.890625 
Q 22.3125 44.4375 30.421875 42.921875 
L 36.375 41.703125 
Q 47.40625 39.59375 52.65625 34.296875 
Q 57.90625 29 57.90625 20.125 
Q 57.90625 9.515625 50.796875 4.046875 
Q 43.703125 -1.421875 29.984375 -1.421875 
Q 24.8125 -1.421875 18.96875 -0.25 
Q 13.140625 0.921875 6.890625 3.21875 
L 6.890625 13.375 
Q 12.890625 10.015625 18.65625 8.296875 
Q 24.421875 6.59375 29.984375 6.59375 
Q 38.421875 6.59375 43.015625 9.90625 
Q 47.609375 13.234375 47.609375 19.390625 
Q 47.609375 24.75 44.3125 27.78125 
Q 41.015625 30.8125 33.5 32.328125 
L 27.484375 33.5 
Q 16.453125 35.6875 11.515625 40.375 
Q 6.59375 45.0625 6.59375 53.421875 
Q 6.59375 63.09375 13.40625 68.65625 
Q 20.21875 74.21875 32.171875 74.21875 
Q 37.3125 74.21875 42.625 73.28125 
Q 47.953125 72.359375 53.515625 70.515625 
z
" id="DejaVuSans-83"/>
      <path d="M 9.8125 72.90625 
L 51.703125 72.90625 
L 51.703125 64.59375 
L 19.671875 64.59375 
L 19.671875 43.109375 
L 48.578125 43.109375 
L 48.578125 34.8125 
L 19.671875 34.8125 
L 19.671875 0 
L 9.8125 0 
z
" id="DejaVuSans-70"/>
      <path d="M 45.40625 46.390625 
L 45.40625 75.984375 
L 54.390625 75.984375 
L 54.390625 0 
L 45.40625 0 
L 45.40625 8.203125 
Q 42.578125 3.328125 38.25 0.953125 
Q 33.9375 -1.421875 27.875 -1.421875 
Q 17.96875 -1.421875 11.734375 6.484375 
Q 5.515625 14.40625 5.515625 27.296875 
Q 5.515625 40.1875 11.734375 48.09375 
Q 17.96875 56 27.875 56 
Q 33.9375 56 38.25 53.625 
Q 42.578125 51.265625 45.40625 46.390625 
z
M 14.796875 27.296875 
Q 14.796875 17.390625 18.875 11.75 
Q 22.953125 6.109375 30.078125 6.109375 
Q 37.203125 6.109375 41.296875 11.75 
Q 45.40625 17.390625 45.40625 27.296875 
Q 45.40625 37.203125 41.296875 42.84375 
Q 37.203125 48.484375 30.078125 48.484375 
Q 22.953125 48.484375 18.875 42.84375 
Q 14.796875 37.203125 14.796875 27.296875 
z
" id="DejaVuSans-100"/>
     </defs>
     <use xlink:href="#DejaVuSans-65"/>
     <use x="62.533203" xlink:href="#DejaVuSans-118"/>
     <use x="121.712891" xlink:href="#DejaVuSans-101"/>
     <use x="183.236328" xlink:href="#DejaVuSans-114"/>
     <use x="224.349609" xlink:href="#DejaVuSans-97"/>
     <use x="285.628906" xlink:href="#DejaVuSans-103"/>
     <use x="349.105469" xlink:href="#DejaVuSans-101"/>
     <use x="410.628906" xlink:href="#DejaVuSans-32"/>
     <use x="442.416016" xlink:href="#DejaVuSans-67"/>
     <use x="512.240234" xlink:href="#DejaVuSans-111"/>
     <use x="573.421875" xlink:href="#DejaVuSans-110"/>
     <use x="636.800781" xlink:href="#DejaVuSans-118"/>
     <use x="695.980469" xlink:href="#DejaVuSans-101"/>
     <use x="757.503906" xlink:href="#DejaVuSans-114"/>
     <use x="796.867188" xlink:href="#DejaVuSans-103"/>
     <use x="860.34375" xlink:href="#DejaVuSans-101"/>
     <use x="921.867188" xlink:href="#DejaVuSans-110"/>
     <use x="985.246094" xlink:href="#DejaVuSans-99"/>
     <use x="1040.226562" xlink:href="#DejaVuSans-101"/>
     <use x="1101.75" xlink:href="#DejaVuSans-32"/>
     <use x="1133.537109" xlink:href="#DejaVuSans-80"/>
     <use x="1190.214844" xlink:href="#DejaVuSans-101"/>
     <use x="1251.738281" xlink:href="#DejaVuSans-114"/>
     <use x="1292.851562" xlink:href="#DejaVuSans-102"/>
     <use x="1328.056641" xlink:href="#DejaVuSans-111"/>
     <use x="1389.238281" xlink:href="#DejaVuSans-114"/>
     <use x="1428.601562" xlink:href="#DejaVuSans-109"/>
     <use x="1526.013672" xlink:href="#DejaVuSans-97"/>
     <use x="1587.292969" xlink:href="#DejaVuSans-110"/>
     <use x="1650.671875" xlink:href="#DejaVuSans-99"/>
     <use x="1705.652344" xlink:href="#DejaVuSans-101"/>
     <use x="1767.175781" xlink:href="#DejaVuSans-32"/>
     <use x="1798.962891" xlink:href="#DejaVuSans-102"/>
     <use x="1834.167969" xlink:href="#DejaVuSans-114"/>
     <use x="1873.03125" xlink:href="#DejaVuSans-111"/>
     <use x="1934.212891" xlink:href="#DejaVuSans-109"/>
     <use x="2031.625" xlink:href="#DejaVuSans-32"/>
     <use x="2063.412109" xlink:href="#DejaVuSans-65"/>
     <use x="2131.820312" xlink:href="#DejaVuSans-108"/>
     <use x="2159.603516" xlink:href="#DejaVuSans-108"/>
     <use x="2187.386719" xlink:href="#DejaVuSans-32"/>
     <use x="2219.173828" xlink:href="#DejaVuSans-83"/>
     <use x="2282.650391" xlink:href="#DejaVuSans-84"/>
     <use x="2343.734375" xlink:href="#DejaVuSans-32"/>
     <use x="2375.521484" xlink:href="#DejaVuSans-70"/>
     <use x="2429.416016" xlink:href="#DejaVuSans-111"/>
     <use x="2490.597656" xlink:href="#DejaVuSans-108"/>
     <use x="2518.380859" xlink:href="#DejaVuSans-100"/>
     <use x="2581.857422" xlink:href="#DejaVuSans-101"/>
     <use x="2643.380859" xlink:href="#DejaVuSans-114"/>
     <use x="2684.494141" xlink:href="#DejaVuSans-115"/>
    </g>
   </g>
   <g id="legend_1">
    <g id="patch_7">
     <path d="M 504.953437 154.53 
L 699.005 154.53 
Q 701.005 154.53 701.005 152.53 
L 701.005 33.88 
Q 701.005 31.88 699.005 31.88 
L 504.953437 31.88 
Q 502.953437 31.88 502.953437 33.88 
L 502.953437 152.53 
Q 502.953437 154.53 504.953437 154.53 
z
" style="fill:#ffffff;opacity:0.8;stroke:#cccccc;stroke-linejoin:miter;"/>
    </g>
    <g id="line2d_39">
     <path d="M 506.953437 39.978437 
L 526.953437 39.978437 
" style="fill:none;stroke:#1f77b4;stroke-linecap:square;stroke-width:1.5;"/>
    </g>
    <g id="line2d_40"/>
    <g id="text_19">
     <!-- Our_WMMSE Train_num 1000 -->
     <g transform="translate(534.953437 43.478437)scale(0.1 -0.1)">
      <defs>
       <path d="M 39.40625 66.21875 
Q 28.65625 66.21875 22.328125 58.203125 
Q 16.015625 50.203125 16.015625 36.375 
Q 16.015625 22.609375 22.328125 14.59375 
Q 28.65625 6.59375 39.40625 6.59375 
Q 50.140625 6.59375 56.421875 14.59375 
Q 62.703125 22.609375 62.703125 36.375 
Q 62.703125 50.203125 56.421875 58.203125 
Q 50.140625 66.21875 39.40625 66.21875 
z
M 39.40625 74.21875 
Q 54.734375 74.21875 63.90625 63.9375 
Q 73.09375 53.65625 73.09375 36.375 
Q 73.09375 19.140625 63.90625 8.859375 
Q 54.734375 -1.421875 39.40625 -1.421875 
Q 24.03125 -1.421875 14.8125 8.828125 
Q 5.609375 19.09375 5.609375 36.375 
Q 5.609375 53.65625 14.8125 63.9375 
Q 24.03125 74.21875 39.40625 74.21875 
z
" id="DejaVuSans-79"/>
       <path d="M 8.5 21.578125 
L 8.5 54.6875 
L 17.484375 54.6875 
L 17.484375 21.921875 
Q 17.484375 14.15625 20.5 10.265625 
Q 23.53125 6.390625 29.59375 6.390625 
Q 36.859375 6.390625 41.078125 11.03125 
Q 45.3125 15.671875 45.3125 23.6875 
L 45.3125 54.6875 
L 54.296875 54.6875 
L 54.296875 0 
L 45.3125 0 
L 45.3125 8.40625 
Q 42.046875 3.421875 37.71875 1 
Q 33.40625 -1.421875 27.6875 -1.421875 
Q 18.265625 -1.421875 13.375 4.4375 
Q 8.5 10.296875 8.5 21.578125 
z
M 31.109375 56 
z
" id="DejaVuSans-117"/>
       <path d="M 3.328125 72.90625 
L 13.28125 72.90625 
L 28.609375 11.28125 
L 43.890625 72.90625 
L 54.984375 72.90625 
L 70.3125 11.28125 
L 85.59375 72.90625 
L 95.609375 72.90625 
L 77.296875 0 
L 64.890625 0 
L 49.515625 63.28125 
L 33.984375 0 
L 21.578125 0 
z
" id="DejaVuSans-87"/>
       <path d="M 9.8125 72.90625 
L 24.515625 72.90625 
L 43.109375 23.296875 
L 61.8125 72.90625 
L 76.515625 72.90625 
L 76.515625 0 
L 66.890625 0 
L 66.890625 64.015625 
L 48.09375 14.015625 
L 38.1875 14.015625 
L 19.390625 64.015625 
L 19.390625 0 
L 9.8125 0 
z
" id="DejaVuSans-77"/>
       <path d="M 9.8125 72.90625 
L 55.90625 72.90625 
L 55.90625 64.59375 
L 19.671875 64.59375 
L 19.671875 43.015625 
L 54.390625 43.015625 
L 54.390625 34.71875 
L 19.671875 34.71875 
L 19.671875 8.296875 
L 56.78125 8.296875 
L 56.78125 0 
L 9.8125 0 
z
" id="DejaVuSans-69"/>
      </defs>
      <use xlink:href="#DejaVuSans-79"/>
      <use x="78.710938" xlink:href="#DejaVuSans-117"/>
      <use x="142.089844" xlink:href="#DejaVuSans-114"/>
      <use x="183.203125" xlink:href="#DejaVuSans-95"/>
      <use x="233.203125" xlink:href="#DejaVuSans-87"/>
      <use x="332.080078" xlink:href="#DejaVuSans-77"/>
      <use x="418.359375" xlink:href="#DejaVuSans-77"/>
      <use x="504.638672" xlink:href="#DejaVuSans-83"/>
      <use x="568.115234" xlink:href="#DejaVuSans-69"/>
      <use x="631.298828" xlink:href="#DejaVuSans-32"/>
      <use x="663.085938" xlink:href="#DejaVuSans-84"/>
      <use x="709.419922" xlink:href="#DejaVuSans-114"/>
      <use x="750.533203" xlink:href="#DejaVuSans-97"/>
      <use x="811.8125" xlink:href="#DejaVuSans-105"/>
      <use x="839.595703" xlink:href="#DejaVuSans-110"/>
      <use x="902.974609" xlink:href="#DejaVuSans-95"/>
      <use x="952.974609" xlink:href="#DejaVuSans-110"/>
      <use x="1016.353516" xlink:href="#DejaVuSans-117"/>
      <use x="1079.732422" xlink:href="#DejaVuSans-109"/>
      <use x="1177.144531" xlink:href="#DejaVuSans-32"/>
      <use x="1208.931641" xlink:href="#DejaVuSans-49"/>
      <use x="1272.554688" xlink:href="#DejaVuSans-48"/>
      <use x="1336.177734" xlink:href="#DejaVuSans-48"/>
      <use x="1399.800781" xlink:href="#DejaVuSans-48"/>
     </g>
    </g>
    <g id="line2d_41">
     <path d="M 506.953437 54.934687 
L 526.953437 54.934687 
" style="fill:none;stroke:#ff7f0e;stroke-dasharray:9.6,2.4,1.5,2.4;stroke-dashoffset:0;stroke-width:1.5;"/>
    </g>
    <g id="line2d_42"/>
    <g id="text_20">
     <!-- SHEN_WMMSE Train_num 1000 -->
     <g transform="translate(534.953437 58.434687)scale(0.1 -0.1)">
      <defs>
       <path d="M 9.8125 72.90625 
L 19.671875 72.90625 
L 19.671875 43.015625 
L 55.515625 43.015625 
L 55.515625 72.90625 
L 65.375 72.90625 
L 65.375 0 
L 55.515625 0 
L 55.515625 34.71875 
L 19.671875 34.71875 
L 19.671875 0 
L 9.8125 0 
z
" id="DejaVuSans-72"/>
       <path d="M 9.8125 72.90625 
L 23.09375 72.90625 
L 55.421875 11.921875 
L 55.421875 72.90625 
L 64.984375 72.90625 
L 64.984375 0 
L 51.703125 0 
L 19.390625 60.984375 
L 19.390625 0 
L 9.8125 0 
z
" id="DejaVuSans-78"/>
      </defs>
      <use xlink:href="#DejaVuSans-83"/>
      <use x="63.476562" xlink:href="#DejaVuSans-72"/>
      <use x="138.671875" xlink:href="#DejaVuSans-69"/>
      <use x="201.855469" xlink:href="#DejaVuSans-78"/>
      <use x="276.660156" xlink:href="#DejaVuSans-95"/>
      <use x="326.660156" xlink:href="#DejaVuSans-87"/>
      <use x="425.537109" xlink:href="#DejaVuSans-77"/>
      <use x="511.816406" xlink:href="#DejaVuSans-77"/>
      <use x="598.095703" xlink:href="#DejaVuSans-83"/>
      <use x="661.572266" xlink:href="#DejaVuSans-69"/>
      <use x="724.755859" xlink:href="#DejaVuSans-32"/>
      <use x="756.542969" xlink:href="#DejaVuSans-84"/>
      <use x="802.876953" xlink:href="#DejaVuSans-114"/>
      <use x="843.990234" xlink:href="#DejaVuSans-97"/>
      <use x="905.269531" xlink:href="#DejaVuSans-105"/>
      <use x="933.052734" xlink:href="#DejaVuSans-110"/>
      <use x="996.431641" xlink:href="#DejaVuSans-95"/>
      <use x="1046.431641" xlink:href="#DejaVuSans-110"/>
      <use x="1109.810547" xlink:href="#DejaVuSans-117"/>
      <use x="1173.189453" xlink:href="#DejaVuSans-109"/>
      <use x="1270.601562" xlink:href="#DejaVuSans-32"/>
      <use x="1302.388672" xlink:href="#DejaVuSans-49"/>
      <use x="1366.011719" xlink:href="#DejaVuSans-48"/>
      <use x="1429.634766" xlink:href="#DejaVuSans-48"/>
      <use x="1493.257812" xlink:href="#DejaVuSans-48"/>
     </g>
    </g>
    <g id="line2d_43">
     <path d="M 506.953437 69.890937 
L 526.953437 69.890937 
" style="fill:none;stroke:#2ca02c;stroke-linecap:square;stroke-width:1.5;"/>
    </g>
    <g id="line2d_44"/>
    <g id="text_21">
     <!-- Our_WMMSE Train_num 2000 -->
     <g transform="translate(534.953437 73.390937)scale(0.1 -0.1)">
      <use xlink:href="#DejaVuSans-79"/>
      <use x="78.710938" xlink:href="#DejaVuSans-117"/>
      <use x="142.089844" xlink:href="#DejaVuSans-114"/>
      <use x="183.203125" xlink:href="#DejaVuSans-95"/>
      <use x="233.203125" xlink:href="#DejaVuSans-87"/>
      <use x="332.080078" xlink:href="#DejaVuSans-77"/>
      <use x="418.359375" xlink:href="#DejaVuSans-77"/>
      <use x="504.638672" xlink:href="#DejaVuSans-83"/>
      <use x="568.115234" xlink:href="#DejaVuSans-69"/>
      <use x="631.298828" xlink:href="#DejaVuSans-32"/>
      <use x="663.085938" xlink:href="#DejaVuSans-84"/>
      <use x="709.419922" xlink:href="#DejaVuSans-114"/>
      <use x="750.533203" xlink:href="#DejaVuSans-97"/>
      <use x="811.8125" xlink:href="#DejaVuSans-105"/>
      <use x="839.595703" xlink:href="#DejaVuSans-110"/>
      <use x="902.974609" xlink:href="#DejaVuSans-95"/>
      <use x="952.974609" xlink:href="#DejaVuSans-110"/>
      <use x="1016.353516" xlink:href="#DejaVuSans-117"/>
      <use x="1079.732422" xlink:href="#DejaVuSans-109"/>
      <use x="1177.144531" xlink:href="#DejaVuSans-32"/>
      <use x="1208.931641" xlink:href="#DejaVuSans-50"/>
      <use x="1272.554688" xlink:href="#DejaVuSans-48"/>
      <use x="1336.177734" xlink:href="#DejaVuSans-48"/>
      <use x="1399.800781" xlink:href="#DejaVuSans-48"/>
     </g>
    </g>
    <g id="line2d_45">
     <path d="M 506.953437 84.847187 
L 526.953437 84.847187 
" style="fill:none;stroke:#d62728;stroke-dasharray:9.6,2.4,1.5,2.4;stroke-dashoffset:0;stroke-width:1.5;"/>
    </g>
    <g id="line2d_46"/>
    <g id="text_22">
     <!-- SHEN_WMMSE Train_num 2000 -->
     <g transform="translate(534.953437 88.347187)scale(0.1 -0.1)">
      <use xlink:href="#DejaVuSans-83"/>
      <use x="63.476562" xlink:href="#DejaVuSans-72"/>
      <use x="138.671875" xlink:href="#DejaVuSans-69"/>
      <use x="201.855469" xlink:href="#DejaVuSans-78"/>
      <use x="276.660156" xlink:href="#DejaVuSans-95"/>
      <use x="326.660156" xlink:href="#DejaVuSans-87"/>
      <use x="425.537109" xlink:href="#DejaVuSans-77"/>
      <use x="511.816406" xlink:href="#DejaVuSans-77"/>
      <use x="598.095703" xlink:href="#DejaVuSans-83"/>
      <use x="661.572266" xlink:href="#DejaVuSans-69"/>
      <use x="724.755859" xlink:href="#DejaVuSans-32"/>
      <use x="756.542969" xlink:href="#DejaVuSans-84"/>
      <use x="802.876953" xlink:href="#DejaVuSans-114"/>
      <use x="843.990234" xlink:href="#DejaVuSans-97"/>
      <use x="905.269531" xlink:href="#DejaVuSans-105"/>
      <use x="933.052734" xlink:href="#DejaVuSans-110"/>
      <use x="996.431641" xlink:href="#DejaVuSans-95"/>
      <use x="1046.431641" xlink:href="#DejaVuSans-110"/>
      <use x="1109.810547" xlink:href="#DejaVuSans-117"/>
      <use x="1173.189453" xlink:href="#DejaVuSans-109"/>
      <use x="1270.601562" xlink:href="#DejaVuSans-32"/>
      <use x="1302.388672" xlink:href="#DejaVuSans-50"/>
      <use x="1366.011719" xlink:href="#DejaVuSans-48"/>
      <use x="1429.634766" xlink:href="#DejaVuSans-48"/>
      <use x="1493.257812" xlink:href="#DejaVuSans-48"/>
     </g>
    </g>
    <g id="line2d_47">
     <path d="M 506.953437 99.803437 
L 526.953437 99.803437 
" style="fill:none;stroke:#9467bd;stroke-linecap:square;stroke-width:1.5;"/>
    </g>
    <g id="line2d_48"/>
    <g id="text_23">
     <!-- Our_WMMSE Train_num 5000 -->
     <g transform="translate(534.953437 103.303437)scale(0.1 -0.1)">
      <use xlink:href="#DejaVuSans-79"/>
      <use x="78.710938" xlink:href="#DejaVuSans-117"/>
      <use x="142.089844" xlink:href="#DejaVuSans-114"/>
      <use x="183.203125" xlink:href="#DejaVuSans-95"/>
      <use x="233.203125" xlink:href="#DejaVuSans-87"/>
      <use x="332.080078" xlink:href="#DejaVuSans-77"/>
      <use x="418.359375" xlink:href="#DejaVuSans-77"/>
      <use x="504.638672" xlink:href="#DejaVuSans-83"/>
      <use x="568.115234" xlink:href="#DejaVuSans-69"/>
      <use x="631.298828" xlink:href="#DejaVuSans-32"/>
      <use x="663.085938" xlink:href="#DejaVuSans-84"/>
      <use x="709.419922" xlink:href="#DejaVuSans-114"/>
      <use x="750.533203" xlink:href="#DejaVuSans-97"/>
      <use x="811.8125" xlink:href="#DejaVuSans-105"/>
      <use x="839.595703" xlink:href="#DejaVuSans-110"/>
      <use x="902.974609" xlink:href="#DejaVuSans-95"/>
      <use x="952.974609" xlink:href="#DejaVuSans-110"/>
      <use x="1016.353516" xlink:href="#DejaVuSans-117"/>
      <use x="1079.732422" xlink:href="#DejaVuSans-109"/>
      <use x="1177.144531" xlink:href="#DejaVuSans-32"/>
      <use x="1208.931641" xlink:href="#DejaVuSans-53"/>
      <use x="1272.554688" xlink:href="#DejaVuSans-48"/>
      <use x="1336.177734" xlink:href="#DejaVuSans-48"/>
      <use x="1399.800781" xlink:href="#DejaVuSans-48"/>
     </g>
    </g>
    <g id="line2d_49">
     <path d="M 506.953437 114.759687 
L 526.953437 114.759687 
" style="fill:none;stroke:#8c564b;stroke-dasharray:9.6,2.4,1.5,2.4;stroke-dashoffset:0;stroke-width:1.5;"/>
    </g>
    <g id="line2d_50"/>
    <g id="text_24">
     <!-- SHEN_WMMSE Train_num 5000 -->
     <g transform="translate(534.953437 118.259687)scale(0.1 -0.1)">
      <use xlink:href="#DejaVuSans-83"/>
      <use x="63.476562" xlink:href="#DejaVuSans-72"/>
      <use x="138.671875" xlink:href="#DejaVuSans-69"/>
      <use x="201.855469" xlink:href="#DejaVuSans-78"/>
      <use x="276.660156" xlink:href="#DejaVuSans-95"/>
      <use x="326.660156" xlink:href="#DejaVuSans-87"/>
      <use x="425.537109" xlink:href="#DejaVuSans-77"/>
      <use x="511.816406" xlink:href="#DejaVuSans-77"/>
      <use x="598.095703" xlink:href="#DejaVuSans-83"/>
      <use x="661.572266" xlink:href="#DejaVuSans-69"/>
      <use x="724.755859" xlink:href="#DejaVuSans-32"/>
      <use x="756.542969" xlink:href="#DejaVuSans-84"/>
      <use x="802.876953" xlink:href="#DejaVuSans-114"/>
      <use x="843.990234" xlink:href="#DejaVuSans-97"/>
      <use x="905.269531" xlink:href="#DejaVuSans-105"/>
      <use x="933.052734" xlink:href="#DejaVuSans-110"/>
      <use x="996.431641" xlink:href="#DejaVuSans-95"/>
      <use x="1046.431641" xlink:href="#DejaVuSans-110"/>
      <use x="1109.810547" xlink:href="#DejaVuSans-117"/>
      <use x="1173.189453" xlink:href="#DejaVuSans-109"/>
      <use x="1270.601562" xlink:href="#DejaVuSans-32"/>
      <use x="1302.388672" xlink:href="#DejaVuSans-53"/>
      <use x="1366.011719" xlink:href="#DejaVuSans-48"/>
      <use x="1429.634766" xlink:href="#DejaVuSans-48"/>
      <use x="1493.257812" xlink:href="#DejaVuSans-48"/>
     </g>
    </g>
    <g id="line2d_51">
     <path d="M 506.953437 129.715937 
L 526.953437 129.715937 
" style="fill:none;stroke:#e377c2;stroke-linecap:square;stroke-width:1.5;"/>
    </g>
    <g id="line2d_52"/>
    <g id="text_25">
     <!-- Our_WMMSE Train_num 10000 -->
     <g transform="translate(534.953437 133.215937)scale(0.1 -0.1)">
      <use xlink:href="#DejaVuSans-79"/>
      <use x="78.710938" xlink:href="#DejaVuSans-117"/>
      <use x="142.089844" xlink:href="#DejaVuSans-114"/>
      <use x="183.203125" xlink:href="#DejaVuSans-95"/>
      <use x="233.203125" xlink:href="#DejaVuSans-87"/>
      <use x="332.080078" xlink:href="#DejaVuSans-77"/>
      <use x="418.359375" xlink:href="#DejaVuSans-77"/>
      <use x="504.638672" xlink:href="#DejaVuSans-83"/>
      <use x="568.115234" xlink:href="#DejaVuSans-69"/>
      <use x="631.298828" xlink:href="#DejaVuSans-32"/>
      <use x="663.085938" xlink:href="#DejaVuSans-84"/>
      <use x="709.419922" xlink:href="#DejaVuSans-114"/>
      <use x="750.533203" xlink:href="#DejaVuSans-97"/>
      <use x="811.8125" xlink:href="#DejaVuSans-105"/>
      <use x="839.595703" xlink:href="#DejaVuSans-110"/>
      <use x="902.974609" xlink:href="#DejaVuSans-95"/>
      <use x="952.974609" xlink:href="#DejaVuSans-110"/>
      <use x="1016.353516" xlink:href="#DejaVuSans-117"/>
      <use x="1079.732422" xlink:href="#DejaVuSans-109"/>
      <use x="1177.144531" xlink:href="#DejaVuSans-32"/>
      <use x="1208.931641" xlink:href="#DejaVuSans-49"/>
      <use x="1272.554688" xlink:href="#DejaVuSans-48"/>
      <use x="1336.177734" xlink:href="#DejaVuSans-48"/>
      <use x="1399.800781" xlink:href="#DejaVuSans-48"/>
      <use x="1463.423828" xlink:href="#DejaVuSans-48"/>
     </g>
    </g>
    <g id="line2d_53">
     <path d="M 506.953437 144.672187 
L 526.953437 144.672187 
" style="fill:none;stroke:#7f7f7f;stroke-dasharray:9.6,2.4,1.5,2.4;stroke-dashoffset:0;stroke-width:1.5;"/>
    </g>
    <g id="line2d_54"/>
    <g id="text_26">
     <!-- SHEN_WMMSE Train_num 10000 -->
     <g transform="translate(534.953437 148.172187)scale(0.1 -0.1)">
      <use xlink:href="#DejaVuSans-83"/>
      <use x="63.476562" xlink:href="#DejaVuSans-72"/>
      <use x="138.671875" xlink:href="#DejaVuSans-69"/>
      <use x="201.855469" xlink:href="#DejaVuSans-78"/>
      <use x="276.660156" xlink:href="#DejaVuSans-95"/>
      <use x="326.660156" xlink:href="#DejaVuSans-87"/>
      <use x="425.537109" xlink:href="#DejaVuSans-77"/>
      <use x="511.816406" xlink:href="#DejaVuSans-77"/>
      <use x="598.095703" xlink:href="#DejaVuSans-83"/>
      <use x="661.572266" xlink:href="#DejaVuSans-69"/>
      <use x="724.755859" xlink:href="#DejaVuSans-32"/>
      <use x="756.542969" xlink:href="#DejaVuSans-84"/>
      <use x="802.876953" xlink:href="#DejaVuSans-114"/>
      <use x="843.990234" xlink:href="#DejaVuSans-97"/>
      <use x="905.269531" xlink:href="#DejaVuSans-105"/>
      <use x="933.052734" xlink:href="#DejaVuSans-110"/>
      <use x="996.431641" xlink:href="#DejaVuSans-95"/>
      <use x="1046.431641" xlink:href="#DejaVuSans-110"/>
      <use x="1109.810547" xlink:href="#DejaVuSans-117"/>
      <use x="1173.189453" xlink:href="#DejaVuSans-109"/>
      <use x="1270.601562" xlink:href="#DejaVuSans-32"/>
      <use x="1302.388672" xlink:href="#DejaVuSans-49"/>
      <use x="1366.011719" xlink:href="#DejaVuSans-48"/>
      <use x="1429.634766" xlink:href="#DejaVuSans-48"/>
      <use x="1493.257812" xlink:href="#DejaVuSans-48"/>
      <use x="1556.880859" xlink:href="#DejaVuSans-48"/>
     </g>
    </g>
   </g>
  </g>
 </g>
 <defs>
  <clipPath id="p1f632f4e7b">
   <rect height="507.05875" width="659.26375" x="46.74125" y="26.88"/>
  </clipPath>
 </defs>
</svg>
